<svg width="24" height="25" viewBox="0 0 24 25" fill="none" xmlns="http://www.w3.org/2000/svg">
<g id="x-outline">
<path id="Vector" d="M13.4115 12.5L18.6952 7.21628C18.7906 7.12419 18.8666 7.01404 18.919 6.89225C18.9713 6.77046 18.9988 6.63947 19 6.50692C19.0011 6.37438 18.9759 6.24293 18.9257 6.12025C18.8755 5.99756 18.8013 5.88611 18.7076 5.79238C18.6139 5.69865 18.5024 5.62453 18.3798 5.57434C18.2571 5.52414 18.1256 5.49889 17.9931 5.50004C17.8605 5.50119 17.7295 5.52873 17.6078 5.58104C17.486 5.63336 17.3758 5.70941 17.2837 5.80475L12 11.0885L6.71628 5.80475C6.528 5.62291 6.27584 5.5223 6.01411 5.52457C5.75237 5.52685 5.502 5.63183 5.31691 5.81691C5.13183 6.002 5.02685 6.25237 5.02457 6.51411C5.0223 6.77584 5.12291 7.028 5.30475 7.21628L10.5885 12.5L5.30475 17.7837C5.20941 17.8758 5.13336 17.986 5.08104 18.1078C5.02873 18.2295 5.00119 18.3605 5.00004 18.4931C4.99889 18.6256 5.02414 18.7571 5.07434 18.8798C5.12453 19.0024 5.19865 19.1139 5.29238 19.2076C5.38611 19.3013 5.49756 19.3755 5.62025 19.4257C5.74293 19.4759 5.87438 19.5011 6.00692 19.5C6.13947 19.4988 6.27046 19.4713 6.39225 19.419C6.51404 19.3666 6.62419 19.2906 6.71628 19.1952L12 13.9115L17.2837 19.1952C17.472 19.3771 17.7242 19.4777 17.9859 19.4754C18.2476 19.4732 18.498 19.3682 18.6831 19.1831C18.8682 18.998 18.9732 18.7476 18.9754 18.4859C18.9777 18.2242 18.8771 17.972 18.6952 17.7837L13.4115 12.5Z" fill="white"/>
</g>
</svg>
