<svg width="24" height="24" viewBox="0 0 24 24" fill="none" xmlns="http://www.w3.org/2000/svg">
<g id="clone-outline">
<g id="Vector">
<path d="M20.066 2H15C14.734 2 14.48 2.105 14.293 2.293L10.293 6.293C10.105 6.48 10 6.735 10 7V16C10 17.103 10.867 18 11.934 18H20.067C21.133 18 22 17.103 22 16V4C22 2.897 21.133 2 20.066 2ZM15 4.414V7H12.414L15 4.414ZM12 16V9H16C16.553 9 17 8.552 17 8V3.99L19.994 3.974C19.994 3.974 20 3.982 20 4L20.066 16H12Z" fill="white"/>
<path d="M12 19V20H4V13H8C8.553 13 9 12.552 9 12V6H7C6.734 6 6.48 6.105 6.293 6.293L2.293 10.293C2.105 10.48 2 10.735 2 11V20C2 21.103 2.867 22 3.934 22H12.067C13.133 22 14 21.103 14 20V19H12ZM7 8.414V11H4.414L7 8.414Z" fill="white"/>
</g>
</g>
</svg>
