<svg width="18" height="18" viewBox="0 0 18 18" fill="none" xmlns="http://www.w3.org/2000/svg">
<g id="Vector">
<path d="M12.7241 3.28965C12.2276 2.91724 12.1034 2.29655 12.4138 1.8C12.7241 1.30345 13.4069 1.11724 13.9034 1.42759C16.4483 3.10345 18 5.89655 18 9C18 13.9655 13.9655 18 9 18C4.03448 18 0 13.9655 0 9C0 5.95862 1.55172 3.10345 4.09655 1.48965C4.5931 1.11724 5.27586 1.30345 5.58621 1.8C5.89655 2.29655 5.77241 2.91724 5.27586 3.28965C3.35172 4.53103 2.17241 6.70345 2.17241 9C2.17241 12.7862 5.21379 15.8276 9 15.8276C12.7862 15.8276 15.8276 12.7862 15.8276 9C15.8276 6.70345 14.6483 4.53103 12.7241 3.28965Z" fill="white"/>
<path d="M7.94483 1.05517C7.94483 0.49655 8.37931 0 9 0C9.62069 0 10.0552 0.49655 10.0552 1.05517V9C10.0552 9.62069 9.62069 10.0552 9 10.0552C8.37931 10.0552 7.94483 9.62069 7.94483 9V1.05517Z" fill="white"/>
</g>
</svg>
