<svg width="17" height="16" viewBox="0 0 17 16" fill="none" xmlns="http://www.w3.org/2000/svg">
<g id="Group">
<path id="Vector (Stroke)" fill-rule="evenodd" clip-rule="evenodd" d="M8.5 1.6C4.96538 1.6 2.1 4.46538 2.1 8C2.1 11.5346 4.96538 14.4 8.5 14.4C12.0347 14.4 14.9 11.5347 14.9 8C14.9 4.46538 12.0346 1.6 8.5 1.6ZM0.5 8C0.5 3.58172 4.08172 0 8.5 0C12.9183 0 16.5 3.58173 16.5 8C16.5 12.4183 12.9183 16 8.5 16C4.08173 16 0.5 12.4183 0.5 8Z" fill="white" fill-opacity="0.2"/>
<path id="Vector (Stroke)_2" fill-rule="evenodd" clip-rule="evenodd" d="M7.69995 0.8C7.69995 0.358172 8.05812 0 8.49995 0C12.9183 0 16.5 3.58173 16.5 8C16.5 8.44183 16.1418 8.8 15.7 8.8C15.2581 8.8 14.9 8.44183 14.9 8C14.9 4.46538 12.0346 1.6 8.49995 1.6C8.05812 1.6 7.69995 1.24183 7.69995 0.8Z" fill="white"/>
</g>
</svg>
