<svg width="333" height="293" viewBox="0 0 333 293" fill="none" xmlns="http://www.w3.org/2000/svg">
<path d="M205.887 30.6659C225.979 65.4378 211.502 98.9207 162.317 131.627C217.195 101.269 255.406 104.357 276.813 141.404C301.925 184.113 275.038 223.888 205.762 263.851C183.32 276.797 161.516 286.343 140.211 293L101.153 225.406L185.928 255.794C188.393 254.806 191.645 252.93 195.873 250.491C226.771 232.666 236.521 204.511 218.682 173.638C199.717 140.816 167.236 137.889 117.836 164.22L111.827 153.821C157.847 121.64 172.1 90.02 154.261 59.1477C136.798 28.9253 108.096 27.2844 76.873 45.2961C71.9944 48.1105 68.2793 50.6869 65.4025 53.213L50.0777 137.014L13.0856 72.9942L13.4108 72.8066C30.3835 55.6495 51.7855 39.4035 77.8047 24.3938C135.047 -8.62779 182.603 -9.6306 205.887 30.6659Z" fill="#95FFDF"/>
<path d="M0 216.016L332.652 29.3968L333 29.8632L7.04164 234.9L0 216.016Z" fill="#95FFDF"/>
</svg>
