<?xml version="1.0" standalone="no"?>
<!DOCTYPE svg PUBLIC "-//W3C//DTD SVG 20010904//EN"
 "http://www.w3.org/TR/2001/REC-SVG-20010904/DTD/svg10.dtd">
<svg version="1.0" xmlns="http://www.w3.org/2000/svg"
 width="180.000000pt" height="180.000000pt" viewBox="0 0 180.000000 180.000000"
 preserveAspectRatio="xMidYMid meet">
<metadata>
Created by potrace 1.14, written by Peter Selinger 2001-2017
</metadata>
<g transform="translate(0.000000,180.000000) scale(0.100000,-0.100000)"
fill="#000000" stroke="none">
<path d="M763 1791 c-140 -23 -290 -87 -409 -177 -153 -115 -260 -273 -321
-471 -24 -79 -26 -104 -26 -243 0 -139 2 -164 26 -243 95 -311 313 -529 624
-624 79 -24 104 -26 243 -26 139 0 164 2 243 26 311 95 529 313 624 624 24 79
26 104 26 243 0 139 -2 164 -26 243 -95 311 -317 533 -624 623 -97 28 -283 40
-380 25z m568 -636 c92 -33 161 -104 171 -175 3 -23 -1 -25 -39 -28 -40 -3
-43 -1 -56 30 -30 72 -117 115 -213 105 -66 -7 -106 -28 -141 -74 -25 -33 -28
-45 -28 -113 0 -69 3 -80 29 -114 50 -67 150 -93 248 -66 38 11 108 79 108
105 0 11 12 15 49 15 50 0 50 0 42 -28 -23 -80 -81 -140 -160 -167 -26 -9 -79
-15 -126 -15 -71 0 -90 4 -144 31 -98 49 -144 126 -143 240 1 162 113 267 288
268 40 1 91 -6 115 -14z m-636 -57 c16 -35 71 -150 122 -256 51 -106 93 -197
93 -203 0 -11 -70 -12 -87 -1 -6 4 -23 33 -37 65 l-27 57 -153 0 -154 0 -31
-65 -30 -65 -45 0 c-26 0 -46 4 -46 10 0 5 45 103 101 217 55 114 110 229 121
256 l20 47 62 0 62 0 29 -62z"/>
<path d="M576 1028 c-13 -29 -38 -83 -55 -120 -17 -37 -31 -70 -31 -73 0 -3
52 -5 115 -5 63 0 115 4 115 8 0 5 -12 33 -26 63 -15 30 -39 82 -55 117 -16
34 -31 62 -34 62 -3 0 -16 -24 -29 -52z"/>
</g>
</svg>
