<svg width="134" height="36" viewBox="0 0 134 36" fill="none" xmlns="http://www.w3.org/2000/svg">
<g id="leequid-logos 1" clip-path="url(#clip0_1180_5567)">
<g id="g8">
<path id="path10" d="M0 28.5664H5.32626V0.552526H0V28.5664Z" fill="white"/>
<g id="g12">
<g id="Clip path group">
<mask id="mask0_1180_5567" style="mask-type:luminance" maskUnits="userSpaceOnUse" x="0" y="0" width="134" height="36">
<g id="clipPath18">
<path id="path16" d="M0 0H133.918V36H0V0Z" fill="white"/>
</g>
</mask>
<g mask="url(#mask0_1180_5567)">
<g id="g14">
<g id="g20">
<path id="path22" d="M24.4236 16.7295C23.7134 14.441 21.8587 13.3361 19.5702 13.3361C17.2427 13.3361 15.4277 14.4804 14.7566 16.7295H24.4236ZM9.07471 18.8206C9.07471 12.9023 13.4149 8.56205 19.5702 8.56205C25.7255 8.56205 29.9474 12.9023 29.9474 18.8206V20.478H14.6382C15.1909 23.0425 17.1243 24.3051 19.5702 24.3051C21.464 24.3051 22.8452 23.8317 23.7134 22.6477H29.316C27.9352 26.5146 24.3052 29.0791 19.5702 29.0791C13.4149 29.0791 9.07471 24.7392 9.07471 18.8206Z" fill="white"/>
</g>
<g id="g24">
<path id="path26" d="M47.5852 16.7295C46.875 14.441 45.0203 13.3361 42.7318 13.3361C40.4043 13.3361 38.5893 14.4804 37.9182 16.7295H47.5852ZM32.2363 18.8206C32.2363 12.9023 36.5766 8.56205 42.7318 8.56205C48.8871 8.56205 53.109 12.9023 53.109 18.8206V20.478H37.7998C38.3525 23.0425 40.2859 24.3051 42.7318 24.3051C44.6256 24.3051 46.0068 23.8317 46.875 22.6477H52.4776C51.0969 26.5146 47.4668 29.0791 42.7318 29.0791C36.5766 29.0791 32.2363 24.7392 32.2363 18.8206Z" fill="white"/>
</g>
<g id="g28">
<path id="path30" d="M80.1772 19.1757V9.07495H85.504V19.1757C85.504 22.5691 87.2398 24.1077 89.8046 24.1077C92.3695 24.1077 94.1052 22.5691 94.1052 19.1757V9.07495H99.4319V19.1757C99.4319 25.7255 95.5652 29.0791 89.8046 29.0791C84.044 29.0791 80.1772 25.765 80.1772 19.1757Z" fill="white"/>
</g>
<path id="path32" d="M103.931 9.07493H109.257V28.5664H103.931V9.07493ZM103.142 3.47211C103.142 1.46004 104.602 8.39233e-05 106.614 8.39233e-05C108.626 8.39233e-05 110.086 1.46004 110.086 3.47211C110.086 5.48451 108.626 6.94447 106.614 6.94447C104.602 6.94447 103.142 5.48451 103.142 3.47211Z" fill="white"/>
<g id="g34">
<path id="path36" d="M128.591 18.8206C128.591 15.7037 126.54 13.5335 123.501 13.5335C120.463 13.5335 118.412 15.7037 118.412 18.8206C118.412 21.9376 120.463 24.1078 123.501 24.1078C126.54 24.1078 128.591 21.9376 128.591 18.8206ZM113.006 18.584C113.006 11.8765 118.017 8.56217 122.594 8.56217C125.158 8.56217 127.289 9.58797 128.591 11.5607V0.552437H133.918V18.6233C133.918 25.0943 129.578 29.0791 123.541 29.0791C117.346 29.0791 113.006 24.8575 113.006 18.584Z" fill="white"/>
</g>
<g id="g38">
<path id="path40" d="M66.5846 24.2141C63.6059 24.2141 61.1912 21.7994 61.1912 18.8206C61.1912 15.8419 63.6059 13.4271 66.5846 13.4271C69.5634 13.4271 71.9779 15.8419 71.9779 18.8206C71.9779 21.7994 69.5634 24.2141 66.5846 24.2141ZM66.5846 8.56205C60.919 8.56205 56.3262 13.155 56.3262 18.8206C56.3262 24.4863 60.919 29.0791 66.5846 29.0791C72.2502 29.0791 76.8431 24.4863 76.8431 18.8206C76.8431 13.155 72.2502 8.56205 66.5846 8.56205Z" fill="white"/>
</g>
<g id="g42">
<path id="path44" d="M63.7043 33.1197C63.7043 30.6498 66.5846 28.8982 66.5846 28.8982C66.5846 28.8982 69.4649 30.6498 69.4649 33.1197C69.4649 34.7105 68.1753 36 66.5846 36C64.9939 36 63.7043 34.7105 63.7043 33.1197Z" fill="white"/>
</g>
</g>
</g>
</g>
</g>
</g>
</g>
<defs>
<clipPath id="clip0_1180_5567">
<rect width="133.918" height="36" fill="white"/>
</clipPath>
</defs>
</svg>
