<svg width="176" height="54" viewBox="0 0 176 54" fill="none" xmlns="http://www.w3.org/2000/svg">
<line x1="12" y1="34.25" x2="169" y2="34.25" stroke="#95FFDF" stroke-width="1.5"/>
<path d="M33.2592 24.6369V32.0647L26.4929 26.5325C26.2974 26.4939 25.9454 26.4552 25.4761 26.4552C23.7161 26.4552 22.8556 26.9581 22.8556 28.0026C22.8556 28.5056 23.0903 29.0085 23.5205 29.4727C24.4592 30.3625 25.2414 30.7107 27.2361 31.6005C28.3312 32.1034 29.1525 32.529 29.6609 32.7998C30.2085 33.0706 30.8734 33.5348 31.6947 34.1151C33.2983 35.3144 34.0023 36.7458 34.0023 38.6027C34.0023 41.04 32.5943 42.8196 30.4041 43.632C28.2138 44.4444 26.1409 44.7926 23.7943 44.7926C21.4085 44.7926 18.8663 44.5605 16.1676 44.0576V36.475L22.9338 42.0459C23.2076 42.0459 23.6378 42.0072 24.1463 41.9685C25.7498 41.6977 26.5712 41.1561 26.5712 40.2663C26.5712 39.8407 26.3365 39.4539 25.9063 39.067C25.0849 38.2546 24.3809 37.9838 22.4645 37.094C21.3694 36.591 20.5089 36.2042 19.9223 35.8947C19.3356 35.5852 18.5925 35.121 17.7712 34.5407C16.0894 33.3027 15.3463 31.8326 15.3463 29.937C15.3463 25.9522 19.14 23.6697 25.6716 23.6697C28.2921 23.6697 30.7952 23.9792 33.2592 24.6369Z" fill="white"/>
<path d="M36.1213 34.2312C36.1213 31.0976 37.1382 28.5442 39.2111 26.6099C41.284 24.6369 44.0217 23.6697 47.4244 23.6697C50.8271 23.6697 53.5649 24.6369 55.6377 26.6099C57.7106 28.5442 58.7666 31.0976 58.7666 34.2312C58.7666 37.3648 57.7106 39.9181 55.6377 41.8911C53.5649 43.8254 50.8271 44.7926 47.4244 44.7926C44.0217 44.7926 41.284 43.8254 39.2111 41.8911C37.1382 39.9568 36.1213 37.4035 36.1213 34.2312ZM47.4635 25.9909C46.1729 25.9909 45.1951 26.726 44.4911 28.1574C43.8262 29.5888 43.4742 31.6392 43.4742 34.3085C43.4742 36.9779 43.8262 38.9896 44.4911 40.3823C45.156 41.775 46.1729 42.4714 47.4635 42.4714C50.084 42.4714 51.492 39.5312 51.4529 34.1151C51.3746 28.699 50.0449 25.9909 47.4635 25.9909Z" fill="white"/>
<path d="M79.9111 24.6369V32.1808L73.5751 26.4939H73.4577C72.3235 26.4939 71.3457 26.9194 70.5635 27.8092C68.9991 29.5501 68.5297 31.8326 68.5297 34.0377C68.5689 36.2816 69.0773 38.1385 70.0551 39.5699C71.0329 41.0013 72.2844 41.7364 73.8097 41.7364C75.8435 41.7364 77.9164 40.4597 80.0675 37.9064L81.28 38.6801C78.6595 42.7035 75.8044 44.7926 71.3849 44.7926C68.2951 44.7926 65.8311 43.8641 63.9929 42.0459C62.1546 40.2276 61.216 37.7903 61.216 34.7341C61.216 27.345 64.736 23.6697 72.2844 23.6697C74.3964 23.6697 76.9386 23.9792 79.9111 24.6369Z" fill="white"/>
<path d="M82.9721 25.3719L92.3588 23.3989V41.04L94.7837 44.3284H82.8939L85.2015 41.04V28.5829L82.9721 25.3719ZM88.3304 22.7026L84.341 18.9113L88.0957 14.2689L92.1632 18.2149L88.3304 22.7026Z" fill="white"/>
<path d="M137.849 40.8079L138.514 41.6203C136.872 43.7094 134.72 44.7539 132.022 44.7539C128.267 44.7539 125.842 42.4714 125.842 38.8736L125.803 26.3004H123.613V25.6814L133 18.6018V24.3661H137.067V26.3004H133V37.713C133 40.305 133.821 41.3882 135.698 41.3882C136.441 41.3882 137.145 41.1947 137.849 40.8079Z" fill="white"/>
<path d="M150.968 54H144.475L146.626 50.7503L149.481 45.4503L139.078 24.3661H151.398L149.13 28.6216L153.666 37.7903L157.265 31.1749L154.253 24.3661H163.522L159.494 31.1749L148.856 50.7503L150.968 54Z" fill="white"/>
<path d="M119.568 27.2031C119.568 31.4586 116.243 33.7411 109.594 34.0506C116.791 34.0893 120.389 36.4492 120.389 41.0529C120.389 45.8887 116.282 47.9778 106.7 47.9778C103.454 47.9778 100.755 47.707 98.5648 47.1654V38.4222L105.879 46.3143H106.27C109.672 46.3143 111.432 44.3026 111.432 40.8982C111.432 36.9908 108.812 34.863 103.571 34.5149V33.5864C109.164 32.8127 111.784 30.6075 111.784 26.8549C111.784 23.5279 110.024 21.8644 106.504 21.8644H105.879L98.5648 29.7564V21.0133C98.8386 20.9746 99.5426 20.8198 99.8164 20.7038C102.437 20.2008 105.096 19.93 107.795 19.93C115.304 19.93 119.568 22.5607 119.568 27.2031Z" fill="#95FFDF"/>
<path d="M22.4064 14.8718L22.7943 15.3457C21.836 16.5643 20.5812 17.1736 19.007 17.1736C16.8168 17.1736 15.4023 15.8422 15.4023 13.7434L15.3794 6.40908H14.1018V6.048L19.5774 1.91821V5.28072H21.9501V6.40908H19.5774V13.0664C19.5774 14.5784 20.0565 15.2103 21.1516 15.2103C21.5851 15.2103 21.9957 15.0974 22.4064 14.8718Z" fill="white"/>
<path d="M36.9489 10.8097L36.9261 15.0072L38.3406 16.9254H31.4505L32.751 15.0072L32.7738 10.8774C32.7966 8.23701 32.3859 7.2892 31.1996 7.2892C30.4923 7.2892 29.7622 7.6277 29.0321 8.30472L29.055 15.0072L30.4467 16.9254H23.511L24.8798 15.0072L24.857 3.024L23.5566 1.15093L29.0321 0V6.63475C30.1273 5.64179 31.4049 5.14531 32.8422 5.14531C34.2339 5.14531 35.2834 5.61922 35.8538 6.27367C36.1504 6.58961 36.3785 7.01839 36.5382 7.53743C36.8804 8.55296 36.9489 9.45564 36.9489 10.8097Z" fill="white"/>
<path d="M50.7203 11.7349H43.4196C43.6249 13.8337 44.8341 15.1877 46.4767 15.1877C47.7316 15.1877 48.9179 14.5107 50.0359 13.1792L50.7431 13.6306C49.1689 16.1581 47.5034 17.1962 45.0622 17.1962C43.2599 17.1962 41.7997 16.6546 40.7274 15.5713C39.6551 14.4881 39.1076 13.0213 39.0847 11.1707C39.0619 9.25254 39.6323 7.74054 40.773 6.61218C41.9138 5.46126 43.488 4.89707 45.4729 4.89707C47.5719 4.89707 49.0548 5.52896 49.9218 6.79272C50.8116 8.05648 51.0625 9.70388 50.7203 11.7349ZM45.5185 6.52191C44.2409 6.52191 43.4424 8.07905 43.3739 10.584H47.0471C47.0699 10.1101 47.0699 9.59105 47.0699 8.98173C47.0927 8.37242 46.9559 7.83081 46.6821 7.31176C46.4311 6.79272 46.0433 6.52191 45.5185 6.52191Z" fill="white"/>
</svg>
