<svg width="150" height="150" viewBox="0 0 150 150" fill="none" xmlns="http://www.w3.org/2000/svg">
<rect width="150" height="150" fill="#28B3DF"/>
<g clip-path="url(#clip0_1440_47900)">
<path d="M49.054 33.9066L41.0561 16.506C40.9506 16.2415 40.7396 16.2415 40.6397 16.506L33.0067 33.9066L26.3716 17.1797H16.3877L31.2803 53.2435C31.4441 53.6068 31.7522 53.6068 31.9132 53.2435L40.6897 34.1098L49.5717 53.2435C49.7826 53.6764 50.0408 53.6764 50.2032 53.2435L64.8973 17.1797H55.3783L49.054 33.9066Z" fill="white"/>
<path d="M74.9974 39.2158H87.5086V32.2556H74.9974V25.1951H90.0691V17.1797H65.4854V52.8314H90.8032V44.8076H74.9974V39.2158Z" fill="white"/>
<path d="M28.7393 96.5264H15V132.178H28.7393C38.9842 132.178 46.7212 125.411 46.7212 114.353C46.7212 103.295 38.9842 96.5264 28.7393 96.5264ZM27.6957 124.106H24.5037V104.61H27.6957C33.4441 104.61 36.9941 108.42 36.9941 114.354C36.9941 120.289 33.4427 124.106 27.6957 124.106Z" fill="white"/>
<path d="M106.47 96.2891H74.5498V104.641H85.6523V132.482H95.367V104.641H106.47V96.2891Z" fill="white"/>
<path d="M62.5108 95.8862L45.2158 132.178H54.0978L55.7632 128.307H69.2625L70.9819 132.178H80.3789L63.138 95.8862C62.9798 95.5145 62.6662 95.5145 62.5108 95.8862ZM58.7581 121.345L62.4081 112.865L66.1732 121.345H58.7581Z" fill="white"/>
<path d="M126.304 132.177H135.704L118.463 95.8851C118.303 95.5149 117.988 95.5149 117.833 95.8851L100.538 132.177H109.42L111.085 128.306H124.585L126.304 132.177ZM114.08 121.346L117.73 112.865L121.494 121.346H114.08Z" fill="white"/>
<path d="M106.48 56.4561C97.5873 56.4561 89.76 62.1245 87.8559 70.655C86.1905 62.0117 79.1779 56.8737 70.2501 56.8737H56.5107V92.5254H70.2501C79.1765 92.5254 86.1947 87.386 87.8559 78.7441C89.7586 87.2913 97.5872 92.9903 106.482 92.9903C116.731 92.9903 125.561 85.4468 125.561 74.6933C125.561 63.9397 116.729 56.4561 106.48 56.4561ZM69.2023 84.4585H66.0187V64.9628H69.2023C74.9562 64.9628 78.509 68.7729 78.509 74.7072C78.509 80.6415 74.9548 84.4585 69.2023 84.4585ZM106.48 84.723C100.529 84.723 97.1307 80.3241 97.1307 74.7002C97.1307 69.0763 100.529 64.7401 106.48 64.7401C112.431 64.7401 115.843 69.0903 115.843 74.7002C115.843 80.3102 112.445 84.723 106.48 84.723Z" fill="white"/>
</g>
<defs>
<clipPath id="clip0_1440_47900">
<rect width="121" height="116.584" fill="white" transform="translate(15 16)"/>
</clipPath>
</defs>
</svg>
