<svg xmlns="http://www.w3.org/2000/svg" id="canvas" viewBox="213.789 405.943 922.851 54.531"><path d="M 243.58,410.72 C 243.49 410.28, 243.22 409.99, 242.70 409.66 C 242.17 409.32, 241.77 409.18, 240.95 409.05 C 240.14 408.92, 239.59 408.91, 238.62 409.01 C 237.64 409.10, 237.12 409.25, 236.06 409.52 C 235.01 409.79, 234.44 409.96, 233.35 410.37 C 232.26 410.78, 231.67 411.02, 230.61 411.57 C 229.54 412.11, 228.99 412.43, 228.03 413.09 C 227.08 413.74, 226.60 414.11, 225.82 414.85 C 225.04 415.60, 224.66 415.98, 224.13 416.80 C 223.60 417.62, 223.37 418.07, 223.17 418.95 C 222.97 419.84, 222.95 420.33, 223.13 421.21 C 223.31 422.10, 223.51 422.57, 224.08 423.39 C 224.65 424.20, 225.06 424.59, 225.98 425.28 C 226.90 425.97, 227.48 426.25, 228.68 426.83 C 229.88 427.42, 230.58 427.67, 232.00 428.21 C 233.41 428.74, 234.21 428.98, 235.75 429.51 C 237.29 430.04, 238.12 430.29, 239.69 430.86 C 241.25 431.44, 242.07 431.75, 243.57 432.40 C 245.07 433.04, 245.83 433.38, 247.19 434.10 C 248.54 434.81, 249.20 435.19, 250.32 435.97 C 251.45 436.74, 251.96 437.17, 252.82 437.97 C 253.69 438.78, 254.07 439.22, 254.64 440.00 C 255.21 440.78, 255.42 441.17, 255.68 441.87 C 255.94 442.58, 255.97 442.90, 255.94 443.53 C 255.92 444.15, 255.84 444.45, 255.54 445.01 C 255.23 445.57, 255.02 445.83, 254.43 446.34 C 253.85 446.86, 253.49 447.12, 252.61 447.59 C 251.72 448.05, 251.19 448.29, 250.01 448.67 C 248.83 449.05, 248.13 449.22, 246.70 449.49 C 245.26 449.76, 244.45 449.87, 242.83 450.01 C 241.22 450.15, 240.32 450.19, 238.62 450.19 C 236.92 450.18, 236.02 450.14, 234.33 450.00 C 232.65 449.87, 231.77 449.76, 230.20 449.49 C 228.63 449.23, 227.84 449.05, 226.47 448.67 C 225.10 448.29, 224.44 448.06, 223.35 447.60 C 222.26 447.13, 221.79 446.87, 221.04 446.34 C 220.29 445.81, 220.07 445.44, 219.60 444.94 C 219.13 444.43, 219.02 444.19, 218.69 443.81 C 218.36 443.43, 218.28 443.13, 217.95 443.02 C 217.62 442.91, 217.27 442.93, 217.04 443.25 C 216.82 443.56, 216.72 443.96, 216.84 444.61 C 216.95 445.26, 217.09 445.73, 217.61 446.50 C 218.14 447.26, 218.55 447.72, 219.47 448.43 C 220.39 449.15, 220.98 449.48, 222.22 450.08 C 223.46 450.67, 224.18 450.94, 225.67 451.39 C 227.17 451.85, 228.01 452.04, 229.68 452.36 C 231.36 452.68, 232.28 452.81, 234.06 452.99 C 235.84 453.16, 236.80 453.22, 238.60 453.25 C 240.41 453.27, 241.35 453.25, 243.09 453.11 C 244.82 452.98, 245.69 452.87, 247.27 452.58 C 248.86 452.28, 249.64 452.10, 251.00 451.63 C 252.37 451.16, 253.01 450.87, 254.10 450.22 C 255.19 449.57, 255.67 449.19, 256.44 448.37 C 257.20 447.55, 257.53 447.07, 257.93 446.12 C 258.33 445.17, 258.42 444.63, 258.45 443.62 C 258.48 442.60, 258.40 442.09, 258.08 441.06 C 257.76 440.04, 257.50 439.50, 256.83 438.49 C 256.16 437.47, 255.71 436.96, 254.73 435.99 C 253.76 435.03, 253.18 434.55, 251.95 433.67 C 250.72 432.78, 250.01 432.35, 248.57 431.55 C 247.14 430.75, 246.34 430.38, 244.78 429.67 C 243.22 428.96, 242.38 428.62, 240.78 427.99 C 239.19 427.37, 238.33 427.09, 236.80 426.54 C 235.28 425.98, 234.49 425.73, 233.14 425.21 C 231.79 424.69, 231.13 424.43, 230.05 423.94 C 228.96 423.44, 228.48 423.20, 227.72 422.74 C 226.95 422.28, 226.66 422.05, 226.22 421.63 C 225.78 421.21, 225.65 421.04, 225.51 420.63 C 225.37 420.22, 225.38 420.04, 225.53 419.58 C 225.69 419.13, 225.85 418.88, 226.29 418.36 C 226.73 417.84, 227.04 417.54, 227.72 416.98 C 228.39 416.43, 228.82 416.10, 229.67 415.57 C 230.52 415.04, 231.02 414.77, 231.97 414.32 C 232.92 413.87, 233.46 413.66, 234.43 413.31 C 235.40 412.97, 235.93 412.80, 236.82 412.59 C 237.72 412.39, 238.13 412.33, 238.90 412.27 C 239.67 412.21, 240.05 412.30, 240.68 412.29 C 241.31 412.29, 241.56 412.32, 242.06 412.24 C 242.55 412.16, 242.85 412.19, 243.15 411.89 C 243.46 411.59, 243.67 411.17, 243.58 410.72" style="stroke: white; fill: white;"/><path d="M 264.97,427.88 C 264.57 427.94, 264.36 428.11, 264.07 428.50 C 263.79 428.89, 263.67 429.20, 263.54 429.84 C 263.40 430.48, 263.40 430.88, 263.41 431.69 C 263.42 432.50, 263.48 432.96, 263.59 433.87 C 263.70 434.78, 263.75 435.28, 263.95 436.24 C 264.14 437.21, 264.24 437.72, 264.55 438.70 C 264.86 439.67, 265.04 440.19, 265.49 441.12 C 265.94 442.05, 266.22 442.52, 266.82 443.33 C 267.43 444.14, 267.78 444.52, 268.51 445.17 C 269.25 445.81, 269.67 446.11, 270.51 446.54 C 271.36 446.97, 271.83 447.14, 272.74 447.33 C 273.66 447.52, 274.15 447.56, 275.08 447.49 C 276.02 447.42, 276.52 447.31, 277.42 446.98 C 278.31 446.66, 278.76 446.41, 279.58 445.85 C 280.39 445.28, 280.79 444.94, 281.50 444.17 C 282.21 443.40, 282.56 442.93, 283.13 442.00 C 283.71 441.07, 283.95 440.53, 284.37 439.51 C 284.79 438.49, 284.97 437.93, 285.25 436.89 C 285.53 435.84, 285.62 435.28, 285.76 434.29 C 285.91 433.29, 285.93 432.80, 285.96 431.89 C 285.99 430.98, 286.04 430.50, 285.91 429.75 C 285.78 429.00, 285.68 428.54, 285.31 428.13 C 284.93 427.71, 284.52 427.60, 284.02 427.66 C 283.52 427.71, 283.14 427.91, 282.79 428.39 C 282.45 428.88, 282.32 429.29, 282.30 430.09 C 282.28 430.89, 282.45 431.42, 282.69 432.39 C 282.93 433.37, 283.15 433.92, 283.50 434.98 C 283.84 436.03, 284.01 436.59, 284.41 437.66 C 284.82 438.73, 285.03 439.29, 285.52 440.31 C 286.01 441.34, 286.28 441.87, 286.87 442.78 C 287.46 443.70, 287.78 444.14, 288.45 444.89 C 289.12 445.65, 289.48 445.99, 290.24 446.55 C 290.99 447.10, 291.41 447.35, 292.20 447.65 C 293.00 447.94, 293.50 448.03, 294.22 448.01 C 294.94 447.99, 295.35 447.83, 295.81 447.55 C 296.27 447.27, 296.47 446.97, 296.53 446.60 C 296.59 446.22, 296.38 445.91, 296.13 445.67 C 295.87 445.44, 295.61 445.49, 295.25 445.42 C 294.88 445.36, 294.72 445.41, 294.30 445.35 C 293.88 445.30, 293.64 445.34, 293.15 445.15 C 292.67 444.96, 292.39 444.81, 291.88 444.39 C 291.36 443.98, 291.08 443.70, 290.57 443.08 C 290.07 442.45, 289.81 442.06, 289.34 441.26 C 288.86 440.46, 288.62 439.99, 288.21 439.07 C 287.80 438.15, 287.61 437.65, 287.30 436.66 C 286.99 435.67, 286.87 435.14, 286.67 434.13 C 286.47 433.13, 286.45 432.56, 286.29 431.64 C 286.13 430.72, 286.12 430.21, 285.87 429.54 C 285.63 428.87, 285.44 428.60, 285.06 428.29 C 284.67 427.98, 284.35 427.92, 283.96 427.99 C 283.57 428.06, 283.28 428.25, 283.10 428.66 C 282.93 429.07, 283.06 429.42, 283.07 430.04 C 283.08 430.67, 283.19 431.03, 283.16 431.78 C 283.12 432.54, 283.06 432.97, 282.90 433.83 C 282.75 434.69, 282.64 435.18, 282.37 436.08 C 282.11 436.99, 281.95 437.47, 281.58 438.34 C 281.21 439.21, 280.99 439.65, 280.53 440.42 C 280.07 441.19, 279.81 441.57, 279.28 442.18 C 278.75 442.80, 278.48 443.05, 277.90 443.48 C 277.32 443.90, 277.01 444.06, 276.40 444.30 C 275.79 444.55, 275.47 444.63, 274.85 444.69 C 274.23 444.75, 273.91 444.74, 273.30 444.61 C 272.69 444.49, 272.38 444.38, 271.80 444.07 C 271.21 443.76, 270.91 443.55, 270.38 443.06 C 269.86 442.58, 269.60 442.29, 269.15 441.65 C 268.71 441.01, 268.50 440.62, 268.16 439.86 C 267.82 439.10, 267.67 438.66, 267.44 437.83 C 267.21 437.00, 267.13 436.56, 267.01 435.71 C 266.89 434.86, 266.86 434.40, 266.82 433.59 C 266.79 432.79, 266.80 432.38, 266.81 431.68 C 266.82 430.98, 266.89 430.66, 266.86 430.11 C 266.82 429.56, 266.78 429.34, 266.63 428.95 C 266.48 428.56, 266.43 428.39, 266.10 428.17 C 265.77 427.96, 265.38 427.81, 264.97 427.88" style="stroke: white; fill: white;"/><path d="M 297.05,429.71 C 296.70 429.93, 296.61 430.17, 296.47 430.67 C 296.32 431.18, 296.28 431.51, 296.33 432.23 C 296.38 432.95, 296.50 433.43, 296.71 434.28 C 296.93 435.13, 297.15 435.58, 297.40 436.46 C 297.66 437.35, 297.78 437.81, 298.00 438.70 C 298.22 439.59, 298.33 440.07, 298.52 440.92 C 298.72 441.77, 298.76 442.24, 298.96 442.94 C 299.16 443.64, 299.24 444.03, 299.52 444.42 C 299.80 444.81, 300.02 444.91, 300.37 444.91 C 300.71 444.90, 301.00 444.75, 301.22 444.41 C 301.45 444.06, 301.56 443.74, 301.48 443.18 C 301.40 442.62, 301.17 442.28, 300.82 441.59 C 300.46 440.91, 300.14 440.54, 299.72 439.76 C 299.30 438.99, 299.08 438.54, 298.71 437.71 C 298.34 436.88, 298.15 436.44, 297.89 435.62 C 297.63 434.80, 297.54 434.38, 297.42 433.59 C 297.30 432.81, 297.27 432.41, 297.29 431.70 C 297.31 430.99, 297.35 430.65, 297.53 430.04 C 297.71 429.43, 297.84 429.16, 298.18 428.66 C 298.52 428.16, 298.74 427.95, 299.25 427.55 C 299.75 427.16, 300.06 426.97, 300.71 426.68 C 301.37 426.40, 301.74 426.27, 302.53 426.11 C 303.32 425.96, 303.78 425.93, 304.67 425.90 C 305.55 425.86, 306.10 425.96, 306.96 425.94 C 307.82 425.93, 308.26 425.94, 308.95 425.83 C 309.64 425.72, 310.07 425.69, 310.40 425.41 C 310.73 425.13, 310.81 424.80, 310.60 424.41 C 310.38 424.02, 310.00 423.77, 309.32 423.45 C 308.63 423.13, 308.14 422.96, 307.17 422.82 C 306.21 422.69, 305.56 422.69, 304.50 422.76 C 303.44 422.83, 302.87 422.93, 301.86 423.18 C 300.86 423.44, 300.35 423.59, 299.47 424.03 C 298.58 424.47, 298.15 424.75, 297.43 425.37 C 296.72 425.99, 296.40 426.36, 295.89 427.14 C 295.39 427.91, 295.19 428.36, 294.91 429.24 C 294.63 430.12, 294.57 430.61, 294.51 431.55 C 294.44 432.50, 294.47 432.98, 294.58 433.96 C 294.68 434.93, 294.78 435.44, 295.03 436.42 C 295.27 437.39, 295.48 437.89, 295.80 438.84 C 296.12 439.78, 296.31 440.25, 296.64 441.15 C 296.97 442.05, 297.07 442.58, 297.46 443.32 C 297.84 444.07, 298.07 444.45, 298.57 444.88 C 299.06 445.31, 299.40 445.43, 299.95 445.47 C 300.50 445.52, 300.91 445.41, 301.31 445.10 C 301.72 444.79, 301.86 444.50, 301.96 443.94 C 302.06 443.39, 301.90 443.07, 301.80 442.34 C 301.70 441.62, 301.62 441.18, 301.46 440.31 C 301.30 439.45, 301.17 438.95, 300.99 438.03 C 300.80 437.11, 300.71 436.62, 300.53 435.71 C 300.36 434.81, 300.30 434.31, 300.12 433.48 C 299.95 432.65, 299.88 432.21, 299.66 431.56 C 299.43 430.92, 299.30 430.67, 299.01 430.27 C 298.72 429.87, 298.60 429.68, 298.21 429.57 C 297.82 429.45, 297.40 429.49, 297.05 429.71" style="stroke: white; fill: white;"/><path d="M 318.00,427.78 C 317.70 428.01, 317.65 428.17, 317.55 428.57 C 317.45 428.97, 317.40 429.21, 317.49 429.77 C 317.58 430.34, 317.73 430.70, 317.99 431.41 C 318.24 432.12, 318.43 432.50, 318.75 433.33 C 319.06 434.16, 319.21 434.64, 319.56 435.58 C 319.91 436.51, 320.09 437.03, 320.48 438.00 C 320.88 438.97, 321.09 439.49, 321.51 440.44 C 321.94 441.39, 322.17 441.89, 322.62 442.76 C 323.07 443.64, 323.31 444.08, 323.78 444.81 C 324.24 445.55, 324.46 445.90, 324.95 446.44 C 325.44 446.98, 325.67 447.23, 326.21 447.50 C 326.76 447.77, 327.09 447.85, 327.68 447.80 C 328.27 447.75, 328.66 447.62, 329.17 447.25 C 329.69 446.87, 329.92 446.57, 330.25 445.92 C 330.58 445.27, 330.63 444.86, 330.82 444.00 C 331.01 443.15, 331.05 442.65, 331.21 441.66 C 331.38 440.67, 331.46 440.10, 331.64 439.04 C 331.82 437.97, 331.90 437.40, 332.12 436.33 C 332.33 435.26, 332.46 434.71, 332.69 433.68 C 332.92 432.66, 333.04 432.12, 333.27 431.18 C 333.49 430.25, 333.63 429.81, 333.82 429.01 C 334.02 428.21, 334.19 427.79, 334.25 427.18 C 334.32 426.57, 334.24 426.34, 334.17 425.94 C 334.09 425.55, 334.08 425.41, 333.89 425.22 C 333.70 425.02, 333.48 424.93, 333.20 424.97 C 332.92 425.01, 332.79 425.13, 332.50 425.42 C 332.21 425.71, 332.04 425.87, 331.76 426.44 C 331.47 427.00, 331.34 427.44, 331.09 428.24 C 330.83 429.05, 330.74 429.53, 330.48 430.48 C 330.23 431.42, 330.09 431.95, 329.82 432.99 C 329.55 434.03, 329.39 434.59, 329.13 435.67 C 328.87 436.76, 328.75 437.36, 328.51 438.42 C 328.27 439.49, 328.15 440.05, 327.93 441.02 C 327.72 442.00, 327.57 442.50, 327.42 443.30 C 327.27 444.09, 327.20 444.48, 327.18 445.01 C 327.16 445.54, 327.23 445.72, 327.32 445.95 C 327.41 446.18, 327.58 446.20, 327.63 446.17 C 327.69 446.13, 327.72 446.04, 327.60 445.78 C 327.49 445.52, 327.33 445.33, 327.05 444.86 C 326.78 444.38, 326.57 444.07, 326.21 443.39 C 325.85 442.71, 325.64 442.29, 325.25 441.46 C 324.86 440.64, 324.66 440.16, 324.28 439.25 C 323.90 438.33, 323.72 437.83, 323.37 436.89 C 323.02 435.95, 322.85 435.45, 322.54 434.53 C 322.24 433.61, 322.10 433.13, 321.85 432.28 C 321.60 431.44, 321.52 431.02, 321.29 430.30 C 321.05 429.58, 320.98 429.19, 320.70 428.68 C 320.42 428.17, 320.22 428.01, 319.89 427.75 C 319.56 427.50, 319.43 427.41, 319.05 427.42 C 318.68 427.42, 318.30 427.55, 318.00 427.78" style="stroke: white; fill: white;"/><path d="M 351.52,430.49 C 351.64 430.07, 351.53 429.77, 351.27 429.38 C 351.00 428.99, 350.74 428.80, 350.19 428.55 C 349.65 428.30, 349.25 428.19, 348.56 428.12 C 347.87 428.05, 347.49 428.11, 346.74 428.21 C 345.99 428.31, 345.60 428.38, 344.79 428.63 C 343.99 428.89, 343.55 429.05, 342.73 429.48 C 341.91 429.91, 341.47 430.18, 340.68 430.79 C 339.90 431.41, 339.49 431.77, 338.81 432.54 C 338.13 433.30, 337.80 433.74, 337.30 434.64 C 336.79 435.53, 336.55 436.03, 336.29 437.00 C 336.04 437.98, 335.96 438.52, 336.01 439.51 C 336.07 440.50, 336.18 441.02, 336.57 441.94 C 336.96 442.86, 337.25 443.34, 337.98 444.11 C 338.70 444.87, 339.19 445.25, 340.20 445.78 C 341.20 446.30, 341.82 446.49, 343.02 446.75 C 344.22 447.01, 344.90 447.06, 346.18 447.07 C 347.46 447.07, 348.14 447.00, 349.42 446.77 C 350.70 446.55, 351.37 446.37, 352.58 445.94 C 353.79 445.51, 354.43 445.23, 355.49 444.62 C 356.55 444.01, 357.05 443.64, 357.88 442.88 C 358.71 442.11, 359.08 441.68, 359.63 440.80 C 360.18 439.91, 360.40 439.42, 360.63 438.46 C 360.86 437.51, 360.89 436.99, 360.79 436.03 C 360.70 435.07, 360.54 434.56, 360.15 433.68 C 359.76 432.80, 359.46 432.37, 358.85 431.63 C 358.24 430.88, 357.84 430.53, 357.11 429.96 C 356.37 429.39, 355.93 429.14, 355.16 428.76 C 354.39 428.37, 353.96 428.18, 353.25 428.03 C 352.54 427.88, 352.14 427.91, 351.61 428.01 C 351.08 428.11, 350.82 428.25, 350.60 428.54 C 350.38 428.83, 350.38 429.15, 350.51 429.47 C 350.65 429.80, 350.88 429.92, 351.26 430.17 C 351.63 430.42, 351.89 430.48, 352.40 430.72 C 352.91 430.96, 353.22 431.03, 353.80 431.35 C 354.37 431.67, 354.70 431.88, 355.26 432.32 C 355.82 432.76, 356.12 433.03, 356.59 433.55 C 357.05 434.07, 357.28 434.35, 357.58 434.92 C 357.89 435.48, 358.01 435.78, 358.11 436.37 C 358.21 436.95, 358.22 437.25, 358.08 437.85 C 357.94 438.44, 357.80 438.76, 357.40 439.35 C 356.99 439.94, 356.72 440.26, 356.06 440.81 C 355.39 441.35, 354.98 441.62, 354.09 442.09 C 353.20 442.55, 352.64 442.78, 351.61 443.13 C 350.58 443.47, 350.00 443.63, 348.92 443.80 C 347.84 443.98, 347.26 444.01, 346.20 443.99 C 345.14 443.98, 344.57 443.91, 343.63 443.73 C 342.69 443.56, 342.23 443.43, 341.50 443.11 C 340.77 442.79, 340.47 442.57, 339.98 442.11 C 339.49 441.66, 339.31 441.39, 339.06 440.85 C 338.82 440.31, 338.75 440.02, 338.75 439.40 C 338.74 438.79, 338.81 438.45, 339.02 437.79 C 339.24 437.14, 339.42 436.77, 339.83 436.13 C 340.23 435.49, 340.50 435.14, 341.05 434.57 C 341.59 433.99, 341.93 433.71, 342.55 433.25 C 343.18 432.78, 343.53 432.58, 344.17 432.25 C 344.81 431.92, 345.15 431.79, 345.75 431.59 C 346.35 431.39, 346.67 431.33, 347.16 431.26 C 347.66 431.18, 347.85 431.19, 348.23 431.23 C 348.60 431.28, 348.73 431.41, 349.04 431.49 C 349.35 431.57, 349.45 431.64, 349.78 431.65 C 350.11 431.65, 350.35 431.73, 350.70 431.50 C 351.05 431.26, 351.41 430.92, 351.52 430.49" style="stroke: white; fill: white;"/><path d="M 365.53,411.98 C 365.18 412.15, 365.09 412.35, 364.91 412.78 C 364.73 413.22, 364.65 413.48, 364.61 414.16 C 364.57 414.85, 364.64 415.30, 364.72 416.21 C 364.80 417.12, 364.90 417.63, 365.02 418.73 C 365.14 419.82, 365.20 420.43, 365.33 421.67 C 365.45 422.91, 365.51 423.59, 365.65 424.94 C 365.80 426.29, 365.87 427.01, 366.04 428.41 C 366.22 429.82, 366.31 430.55, 366.54 431.95 C 366.76 433.35, 366.88 434.07, 367.15 435.41 C 367.43 436.75, 367.57 437.42, 367.91 438.66 C 368.25 439.89, 368.44 440.51, 368.86 441.58 C 369.28 442.66, 369.51 443.15, 370.00 444.03 C 370.50 444.92, 370.73 445.32, 371.34 446.00 C 371.96 446.67, 372.32 447.01, 373.07 447.40 C 373.82 447.79, 374.26 447.86, 375.09 447.94 C 375.92 448.01, 376.34 447.99, 377.22 447.77 C 378.10 447.55, 378.60 447.35, 379.48 446.84 C 380.36 446.33, 380.77 445.94, 381.63 445.20 C 382.49 444.47, 382.95 444.06, 383.77 443.16 C 384.59 442.26, 384.99 441.70, 385.72 440.70 C 386.45 439.69, 386.80 439.17, 387.42 438.13 C 388.03 437.09, 388.33 436.54, 388.79 435.51 C 389.25 434.48, 389.45 433.95, 389.72 432.97 C 390.00 431.99, 390.09 431.50, 390.14 430.61 C 390.19 429.73, 390.17 429.29, 389.98 428.53 C 389.79 427.77, 389.64 427.39, 389.19 426.80 C 388.75 426.22, 388.42 425.93, 387.76 425.61 C 387.09 425.30, 386.65 425.20, 385.87 425.23 C 385.10 425.25, 384.65 425.36, 383.88 425.72 C 383.10 426.07, 382.70 426.36, 382.01 427.01 C 381.32 427.66, 380.97 428.09, 380.42 428.97 C 379.86 429.85, 379.60 430.38, 379.25 431.43 C 378.90 432.48, 378.75 433.09, 378.65 434.23 C 378.56 435.38, 378.57 436.01, 378.78 437.17 C 379.00 438.33, 379.18 438.93, 379.73 440.02 C 380.27 441.11, 380.64 441.66, 381.51 442.61 C 382.38 443.56, 382.92 444.02, 384.09 444.77 C 385.25 445.51, 385.94 445.85, 387.33 446.36 C 388.72 446.86, 389.51 447.04, 391.02 447.31 C 392.54 447.58, 393.37 447.66, 394.89 447.70 C 396.42 447.74, 397.31 447.71, 398.65 447.53 C 399.98 447.35, 400.64 447.14, 401.57 446.78 C 402.50 446.42, 402.98 446.13, 403.28 445.74 C 403.58 445.34, 403.49 445.04, 403.08 444.80 C 402.66 444.56, 402.14 444.58, 401.21 444.53 C 400.27 444.47, 399.66 444.50, 398.41 444.52 C 397.17 444.53, 396.36 444.65, 394.98 444.60 C 393.61 444.56, 392.87 444.52, 391.54 444.30 C 390.22 444.08, 389.54 443.90, 388.36 443.49 C 387.19 443.08, 386.62 442.81, 385.68 442.23 C 384.73 441.66, 384.30 441.32, 383.63 440.62 C 382.95 439.92, 382.68 439.52, 382.28 438.74 C 381.88 437.95, 381.76 437.52, 381.63 436.68 C 381.50 435.84, 381.52 435.37, 381.63 434.53 C 381.73 433.68, 381.87 433.23, 382.16 432.45 C 382.45 431.67, 382.66 431.28, 383.07 430.65 C 383.48 430.01, 383.76 429.72, 384.20 429.26 C 384.64 428.81, 384.89 428.63, 385.29 428.37 C 385.68 428.11, 385.86 428.05, 386.17 427.95 C 386.48 427.85, 386.60 427.83, 386.82 427.88 C 387.04 427.93, 387.13 427.97, 387.28 428.19 C 387.43 428.42, 387.50 428.59, 387.55 429.02 C 387.60 429.45, 387.63 429.73, 387.53 430.36 C 387.44 430.99, 387.34 431.37, 387.07 432.16 C 386.80 432.94, 386.62 433.40, 386.18 434.29 C 385.74 435.17, 385.47 435.67, 384.89 436.58 C 384.31 437.50, 383.95 437.97, 383.26 438.86 C 382.58 439.74, 382.19 440.23, 381.45 441.02 C 380.71 441.81, 380.28 442.16, 379.55 442.80 C 378.82 443.44, 378.45 443.75, 377.81 444.21 C 377.17 444.66, 376.86 444.82, 376.32 445.07 C 375.79 445.32, 375.57 445.41, 375.15 445.46 C 374.73 445.50, 374.60 445.51, 374.23 445.29 C 373.86 445.06, 373.68 444.84, 373.31 444.34 C 372.93 443.84, 372.72 443.53, 372.35 442.79 C 371.98 442.04, 371.80 441.59, 371.46 440.62 C 371.13 439.65, 370.97 439.08, 370.68 437.93 C 370.39 436.77, 370.26 436.13, 370.02 434.85 C 369.78 433.56, 369.68 432.87, 369.49 431.51 C 369.30 430.16, 369.22 429.44, 369.07 428.06 C 368.92 426.68, 368.86 425.97, 368.74 424.64 C 368.63 423.30, 368.57 422.63, 368.48 421.40 C 368.39 420.16, 368.36 419.55, 368.29 418.45 C 368.23 417.35, 368.24 416.83, 368.16 415.91 C 368.09 415.00, 368.07 414.54, 367.91 413.88 C 367.76 413.21, 367.63 412.99, 367.38 412.60 C 367.13 412.20, 367.05 412.03, 366.68 411.91 C 366.31 411.79, 365.88 411.80, 365.53 411.98" style="stroke: white; fill: white;"/><path d="M 403.15,429.37 C 403.47 429.68, 403.79 429.65, 404.34 429.73 C 404.88 429.80, 405.18 429.79, 405.87 429.75 C 406.57 429.71, 407.01 429.61, 407.81 429.52 C 408.60 429.44, 409.02 429.38, 409.85 429.34 C 410.67 429.30, 411.13 429.30, 411.93 429.32 C 412.74 429.34, 413.15 429.37, 413.87 429.45 C 414.59 429.52, 414.94 429.57, 415.52 429.68 C 416.10 429.79, 416.37 429.89, 416.77 429.99 C 417.16 430.08, 417.31 430.13, 417.48 430.16 C 417.65 430.19, 417.66 430.13, 417.62 430.13 C 417.58 430.12, 417.50 430.06, 417.26 430.14 C 417.02 430.22, 416.85 430.29, 416.42 430.54 C 415.98 430.79, 415.71 431.00, 415.09 431.39 C 414.48 431.78, 414.10 432.03, 413.32 432.50 C 412.55 432.96, 412.09 433.21, 411.22 433.73 C 410.34 434.25, 409.85 434.53, 408.96 435.10 C 408.08 435.67, 407.60 435.97, 406.78 436.58 C 405.96 437.19, 405.53 437.49, 404.85 438.16 C 404.17 438.82, 403.84 439.17, 403.38 439.90 C 402.93 440.63, 402.74 441.00, 402.58 441.79 C 402.43 442.57, 402.40 443.03, 402.61 443.82 C 402.82 444.61, 403.04 445.05, 403.63 445.74 C 404.21 446.43, 404.63 446.75, 405.54 447.27 C 406.45 447.79, 407.02 448.00, 408.18 448.35 C 409.34 448.71, 410.02 448.84, 411.36 449.05 C 412.71 449.27, 413.46 449.33, 414.90 449.43 C 416.34 449.53, 417.11 449.54, 418.56 449.55 C 420.01 449.56, 420.77 449.53, 422.15 449.48 C 423.52 449.42, 424.22 449.38, 425.45 449.27 C 426.68 449.16, 427.27 449.10, 428.30 448.95 C 429.34 448.80, 429.83 448.73, 430.64 448.52 C 431.44 448.32, 431.81 448.21, 432.34 447.94 C 432.86 447.67, 433.03 447.48, 433.27 447.18 C 433.51 446.88, 433.57 446.71, 433.54 446.45 C 433.51 446.19, 433.31 446.02, 433.12 445.88 C 432.93 445.75, 432.86 445.79, 432.57 445.76 C 432.27 445.72, 432.14 445.66, 431.65 445.71 C 431.16 445.75, 430.86 445.87, 430.13 445.98 C 429.39 446.08, 428.96 446.15, 427.98 446.24 C 427.01 446.33, 426.44 446.37, 425.26 446.43 C 424.08 446.48, 423.40 446.50, 422.07 446.52 C 420.75 446.53, 420.01 446.53, 418.62 446.49 C 417.24 446.44, 416.50 446.41, 415.15 446.29 C 413.80 446.17, 413.10 446.09, 411.89 445.88 C 410.68 445.68, 410.08 445.54, 409.10 445.26 C 408.11 444.98, 407.67 444.79, 406.96 444.49 C 406.26 444.18, 405.98 444.02, 405.57 443.74 C 405.16 443.46, 405.03 443.35, 404.89 443.08 C 404.75 442.80, 404.75 442.69, 404.88 442.36 C 405.00 442.03, 405.13 441.85, 405.50 441.43 C 405.88 441.01, 406.15 440.75, 406.75 440.26 C 407.34 439.78, 407.72 439.51, 408.49 439.00 C 409.25 438.50, 409.71 438.23, 410.57 437.73 C 411.44 437.23, 411.91 436.97, 412.79 436.49 C 413.67 436.01, 414.13 435.79, 414.96 435.33 C 415.79 434.88, 416.22 434.68, 416.93 434.21 C 417.63 433.74, 417.98 433.53, 418.47 433.00 C 418.97 432.48, 419.18 432.19, 419.40 431.59 C 419.62 431.00, 419.67 430.61, 419.59 430.01 C 419.51 429.41, 419.36 429.07, 419.00 428.59 C 418.64 428.11, 418.37 427.93, 417.81 427.61 C 417.24 427.28, 416.89 427.18, 416.18 426.98 C 415.47 426.77, 415.06 426.70, 414.24 426.58 C 413.42 426.45, 412.97 426.42, 412.09 426.35 C 411.21 426.28, 410.74 426.27, 409.84 426.24 C 408.93 426.20, 408.46 426.13, 407.56 426.17 C 406.66 426.22, 406.13 426.26, 405.35 426.45 C 404.58 426.64, 404.19 426.78, 403.67 427.13 C 403.15 427.48, 402.86 427.74, 402.75 428.18 C 402.65 428.63, 402.83 429.06, 403.15 429.37" style="stroke: white; fill: white;"/><path d="M 464.85,415.55 C 464.49 415.73, 464.41 415.96, 464.23 416.41 C 464.05 416.85, 463.99 417.11, 463.95 417.78 C 463.91 418.45, 463.97 418.88, 464.02 419.76 C 464.07 420.64, 464.13 421.12, 464.19 422.18 C 464.25 423.24, 464.27 423.84, 464.34 425.05 C 464.41 426.27, 464.44 426.93, 464.54 428.24 C 464.65 429.56, 464.70 430.26, 464.87 431.62 C 465.04 432.98, 465.14 433.69, 465.39 435.03 C 465.65 436.37, 465.80 437.05, 466.14 438.31 C 466.48 439.56, 466.66 440.19, 467.09 441.31 C 467.51 442.44, 467.75 442.99, 468.28 443.95 C 468.81 444.92, 469.07 445.37, 469.73 446.15 C 470.39 446.92, 470.77 447.33, 471.57 447.82 C 472.36 448.30, 472.91 448.46, 473.70 448.58 C 474.49 448.69, 474.95 448.60, 475.52 448.38 C 476.08 448.17, 476.37 447.89, 476.52 447.51 C 476.67 447.13, 476.52 446.78, 476.27 446.49 C 476.02 446.21, 475.71 446.22, 475.28 446.11 C 474.86 446.00, 474.62 446.04, 474.15 445.94 C 473.68 445.84, 473.41 445.90, 472.94 445.60 C 472.47 445.31, 472.25 445.05, 471.81 444.46 C 471.36 443.88, 471.11 443.50, 470.70 442.67 C 470.29 441.85, 470.09 441.37, 469.74 440.35 C 469.39 439.34, 469.23 438.75, 468.95 437.59 C 468.67 436.42, 468.53 435.77, 468.32 434.51 C 468.11 433.24, 468.03 432.57, 467.89 431.27 C 467.75 429.98, 467.72 429.30, 467.64 428.02 C 467.56 426.75, 467.54 426.10, 467.50 424.91 C 467.46 423.72, 467.46 423.13, 467.45 422.06 C 467.43 421.00, 467.47 420.49, 467.43 419.59 C 467.39 418.68, 467.37 418.22, 467.23 417.55 C 467.09 416.88, 466.98 416.65, 466.74 416.23 C 466.50 415.82, 466.41 415.62, 466.03 415.48 C 465.66 415.35, 465.21 415.36, 464.85 415.55" style="stroke: white; fill: white;"/><path d="M 493.74,431.82 C 493.95 431.43, 493.92 431.10, 493.75 430.61 C 493.59 430.13, 493.40 429.84, 492.92 429.40 C 492.44 428.95, 492.05 428.68, 491.35 428.38 C 490.65 428.08, 490.23 428.01, 489.41 427.89 C 488.60 427.76, 488.18 427.72, 487.28 427.75 C 486.38 427.78, 485.88 427.82, 484.92 428.04 C 483.96 428.26, 483.44 428.43, 482.48 428.84 C 481.52 429.26, 481.02 429.52, 480.13 430.11 C 479.23 430.70, 478.77 431.04, 478.00 431.78 C 477.23 432.53, 476.85 432.95, 476.27 433.82 C 475.70 434.69, 475.45 435.19, 475.13 436.14 C 474.81 437.10, 474.70 437.62, 474.69 438.60 C 474.68 439.57, 474.76 440.12, 475.09 441.03 C 475.43 441.94, 475.71 442.41, 476.37 443.16 C 477.02 443.91, 477.45 444.25, 478.37 444.76 C 479.28 445.28, 479.83 445.50, 480.93 445.75 C 482.02 446.00, 482.65 446.04, 483.82 446.02 C 484.99 446.01, 485.62 445.91, 486.78 445.66 C 487.93 445.40, 488.52 445.19, 489.58 444.74 C 490.64 444.28, 491.17 444.00, 492.07 443.39 C 492.98 442.77, 493.40 442.42, 494.12 441.68 C 494.83 440.95, 495.15 440.53, 495.64 439.70 C 496.14 438.88, 496.33 438.43, 496.60 437.57 C 496.86 436.71, 496.91 436.24, 496.98 435.39 C 497.05 434.55, 497.08 434.09, 496.94 433.34 C 496.79 432.60, 496.67 432.11, 496.24 431.67 C 495.82 431.23, 495.35 431.10, 494.79 431.15 C 494.23 431.19, 493.82 431.41, 493.44 431.88 C 493.06 432.36, 492.91 432.78, 492.88 433.53 C 492.85 434.29, 493.02 434.77, 493.28 435.67 C 493.54 436.57, 493.79 437.06, 494.20 438.02 C 494.61 438.97, 494.84 439.48, 495.33 440.44 C 495.83 441.40, 496.09 441.89, 496.70 442.81 C 497.30 443.73, 497.63 444.20, 498.35 445.03 C 499.07 445.85, 499.48 446.27, 500.29 446.94 C 501.10 447.61, 501.58 447.96, 502.39 448.37 C 503.21 448.79, 503.69 448.92, 504.37 449.02 C 505.05 449.11, 505.44 449.06, 505.79 448.85 C 506.14 448.64, 506.23 448.33, 506.13 447.95 C 506.03 447.57, 505.76 447.37, 505.31 446.95 C 504.87 446.53, 504.53 446.32, 503.90 445.86 C 503.27 445.41, 502.83 445.22, 502.17 444.67 C 501.50 444.12, 501.16 443.80, 500.57 443.11 C 499.97 442.42, 499.69 442.01, 499.19 441.21 C 498.70 440.41, 498.47 439.98, 498.09 439.11 C 497.71 438.25, 497.55 437.77, 497.29 436.89 C 497.04 436.01, 497.00 435.50, 496.81 434.71 C 496.62 433.92, 496.58 433.49, 496.32 432.94 C 496.07 432.39, 495.88 432.18, 495.52 431.96 C 495.17 431.74, 494.87 431.73, 494.53 431.85 C 494.20 431.98, 493.95 432.18, 493.84 432.58 C 493.73 432.98, 493.91 433.31, 493.98 433.84 C 494.05 434.38, 494.19 434.67, 494.19 435.26 C 494.18 435.85, 494.15 436.17, 493.97 436.78 C 493.80 437.38, 493.67 437.69, 493.30 438.28 C 492.94 438.87, 492.70 439.18, 492.14 439.73 C 491.59 440.27, 491.26 440.54, 490.52 440.99 C 489.78 441.45, 489.33 441.66, 488.46 442.01 C 487.58 442.35, 487.08 442.51, 486.14 442.70 C 485.21 442.89, 484.69 442.94, 483.77 442.95 C 482.85 442.97, 482.36 442.93, 481.56 442.78 C 480.75 442.63, 480.35 442.50, 479.73 442.20 C 479.10 441.90, 478.83 441.71, 478.41 441.29 C 477.99 440.86, 477.84 440.61, 477.64 440.08 C 477.44 439.56, 477.39 439.25, 477.41 438.65 C 477.44 438.05, 477.51 437.71, 477.76 437.07 C 478.00 436.42, 478.19 436.07, 478.64 435.44 C 479.09 434.82, 479.39 434.50, 480.01 433.94 C 480.64 433.39, 481.02 433.11, 481.76 432.66 C 482.49 432.20, 482.90 431.99, 483.67 431.68 C 484.45 431.36, 484.86 431.25, 485.61 431.08 C 486.36 430.91, 486.76 430.86, 487.43 430.82 C 488.09 430.78, 488.43 430.78, 488.96 430.86 C 489.48 430.94, 489.67 431.02, 490.05 431.21 C 490.43 431.41, 490.53 431.61, 490.85 431.84 C 491.18 432.07, 491.29 432.23, 491.66 432.38 C 492.03 432.53, 492.28 432.70, 492.70 432.58 C 493.12 432.47, 493.53 432.22, 493.74 431.82" style="stroke: white; fill: white;"/><path d="M 551.80,429.87 C 551.85 429.43, 551.70 429.13, 551.35 428.73 C 551.00 428.33, 550.70 428.12, 550.06 427.86 C 549.42 427.61, 548.95 427.51, 548.14 427.46 C 547.33 427.40, 546.90 427.46, 546.00 427.57 C 545.10 427.69, 544.63 427.77, 543.66 428.04 C 542.69 428.30, 542.16 428.46, 541.14 428.88 C 540.12 429.30, 539.58 429.57, 538.56 430.15 C 537.55 430.73, 537.02 431.06, 536.08 431.77 C 535.15 432.48, 534.67 432.88, 533.88 433.71 C 533.09 434.53, 532.69 434.99, 532.13 435.92 C 531.57 436.84, 531.32 437.35, 531.07 438.35 C 530.82 439.35, 530.75 439.90, 530.88 440.90 C 531.01 441.91, 531.17 442.45, 531.72 443.38 C 532.26 444.30, 532.66 444.76, 533.59 445.51 C 534.52 446.26, 535.12 446.58, 536.37 447.11 C 537.62 447.65, 538.35 447.85, 539.85 448.19 C 541.35 448.53, 542.21 448.67, 543.87 448.83 C 545.53 448.98, 546.56 449.02, 548.15 448.95 C 549.75 448.89, 550.62 448.77, 551.84 448.50 C 553.05 448.23, 553.78 447.97, 554.24 447.58 C 554.71 447.19, 554.67 446.87, 554.16 446.55 C 553.66 446.23, 552.92 446.17, 551.72 446.01 C 550.53 445.84, 549.69 445.81, 548.17 445.72 C 546.66 445.64, 545.68 445.71, 544.15 445.58 C 542.62 445.46, 541.85 445.36, 540.52 445.09 C 539.20 444.83, 538.57 444.62, 537.53 444.24 C 536.49 443.85, 536.05 443.62, 535.34 443.15 C 534.63 442.69, 534.37 442.43, 533.99 441.92 C 533.61 441.40, 533.51 441.14, 533.44 440.57 C 533.36 440.00, 533.42 439.70, 533.63 439.07 C 533.83 438.44, 534.02 438.09, 534.48 437.43 C 534.95 436.77, 535.27 436.41, 535.94 435.76 C 536.62 435.12, 537.04 434.79, 537.87 434.21 C 538.69 433.62, 539.18 433.34, 540.07 432.85 C 540.96 432.36, 541.45 432.14, 542.33 431.78 C 543.22 431.42, 543.67 431.28, 544.48 431.05 C 545.29 430.82, 545.71 430.73, 546.39 430.65 C 547.07 430.56, 547.34 430.57, 547.88 430.63 C 548.41 430.68, 548.64 430.82, 549.08 430.92 C 549.52 431.01, 549.68 431.09, 550.09 431.10 C 550.49 431.10, 550.76 431.17, 551.11 430.93 C 551.45 430.68, 551.75 430.31, 551.80 429.87" style="stroke: white; fill: white;"/><path d="M 574.24,432.55 C 574.46 432.15, 574.42 431.78, 574.25 431.26 C 574.08 430.75, 573.88 430.46, 573.38 430.00 C 572.89 429.53, 572.50 429.25, 571.78 428.93 C 571.07 428.61, 570.64 428.53, 569.80 428.40 C 568.97 428.26, 568.52 428.23, 567.60 428.26 C 566.67 428.29, 566.17 428.33, 565.18 428.55 C 564.19 428.77, 563.66 428.93, 562.67 429.34 C 561.68 429.74, 561.17 430.01, 560.24 430.59 C 559.32 431.17, 558.85 431.51, 558.04 432.25 C 557.23 432.99, 556.82 433.41, 556.20 434.29 C 555.58 435.17, 555.30 435.67, 554.94 436.64 C 554.59 437.61, 554.47 438.15, 554.43 439.15 C 554.39 440.14, 554.44 440.68, 554.74 441.62 C 555.03 442.56, 555.28 443.05, 555.91 443.84 C 556.53 444.63, 556.96 445.01, 557.84 445.58 C 558.73 446.15, 559.27 446.39, 560.34 446.70 C 561.41 447.02, 562.02 447.11, 563.18 447.17 C 564.34 447.22, 564.96 447.16, 566.12 446.98 C 567.27 446.79, 567.87 446.63, 568.95 446.24 C 570.03 445.84, 570.58 445.59, 571.53 445.01 C 572.47 444.44, 572.93 444.09, 573.69 443.38 C 574.45 442.66, 574.79 442.25, 575.34 441.42 C 575.88 440.60, 576.09 440.13, 576.40 439.24 C 576.71 438.35, 576.80 437.86, 576.89 436.96 C 576.97 436.06, 576.92 435.59, 576.83 434.74 C 576.74 433.89, 576.68 433.45, 576.42 432.73 C 576.16 432.01, 576.01 431.55, 575.53 431.14 C 575.06 430.74, 574.61 430.63, 574.04 430.70 C 573.47 430.77, 573.08 431.00, 572.70 431.49 C 572.32 431.98, 572.17 432.38, 572.14 433.14 C 572.12 433.89, 572.29 434.38, 572.57 435.26 C 572.84 436.15, 573.10 436.64, 573.53 437.58 C 573.96 438.52, 574.20 439.03, 574.70 439.97 C 575.20 440.92, 575.47 441.40, 576.04 442.28 C 576.61 443.17, 576.90 443.61, 577.53 444.41 C 578.17 445.21, 578.51 445.65, 579.22 446.27 C 579.94 446.88, 580.39 447.20, 581.12 447.47 C 581.85 447.75, 582.42 447.82, 582.88 447.65 C 583.34 447.48, 583.49 447.09, 583.41 446.64 C 583.33 446.19, 582.92 445.89, 582.47 445.40 C 582.03 444.91, 581.72 444.72, 581.19 444.17 C 580.66 443.61, 580.34 443.31, 579.82 442.62 C 579.30 441.94, 579.04 441.54, 578.57 440.73 C 578.10 439.93, 577.86 439.47, 577.47 438.61 C 577.08 437.74, 576.89 437.26, 576.61 436.39 C 576.33 435.51, 576.30 435.01, 576.09 434.23 C 575.87 433.45, 575.82 433.01, 575.54 432.48 C 575.26 431.94, 575.06 431.74, 574.70 431.56 C 574.35 431.37, 574.05 431.39, 573.76 431.55 C 573.46 431.71, 573.27 431.94, 573.23 432.36 C 573.19 432.78, 573.41 433.10, 573.56 433.65 C 573.71 434.20, 573.88 434.51, 573.99 435.12 C 574.09 435.74, 574.12 436.08, 574.08 436.73 C 574.04 437.38, 573.99 437.73, 573.78 438.36 C 573.58 439.00, 573.45 439.32, 573.05 439.91 C 572.66 440.50, 572.39 440.79, 571.80 441.31 C 571.20 441.83, 570.84 442.10, 570.07 442.53 C 569.31 442.96, 568.86 443.16, 567.98 443.46 C 567.09 443.75, 566.59 443.87, 565.66 444.01 C 564.73 444.14, 564.22 444.17, 563.32 444.13 C 562.42 444.09, 561.95 444.01, 561.16 443.80 C 560.37 443.59, 559.99 443.43, 559.36 443.09 C 558.74 442.74, 558.46 442.53, 558.05 442.07 C 557.63 441.61, 557.48 441.36, 557.31 440.80 C 557.13 440.25, 557.10 439.93, 557.15 439.30 C 557.20 438.67, 557.28 438.31, 557.55 437.65 C 557.83 436.99, 558.04 436.63, 558.53 435.99 C 559.02 435.35, 559.35 435.01, 560.00 434.45 C 560.66 433.88, 561.05 433.60, 561.81 433.15 C 562.57 432.70, 563.00 432.50, 563.81 432.19 C 564.61 431.88, 565.06 431.77, 565.84 431.60 C 566.63 431.43, 567.04 431.39, 567.74 431.34 C 568.44 431.30, 568.81 431.30, 569.35 431.37 C 569.90 431.45, 570.08 431.51, 570.47 431.72 C 570.86 431.92, 570.98 432.13, 571.31 432.38 C 571.63 432.62, 571.73 432.77, 572.10 432.94 C 572.46 433.12, 572.70 433.34, 573.13 433.26 C 573.55 433.18, 574.01 432.95, 574.24 432.55" style="stroke: white; fill: white;"/><path d="M 587.41,432.48 C 587.03 432.65, 586.91 432.88, 586.70 433.35 C 586.49 433.83, 586.40 434.15, 586.35 434.85 C 586.31 435.55, 586.38 436.03, 586.49 436.85 C 586.60 437.68, 586.74 438.13, 586.90 438.97 C 587.06 439.81, 587.14 440.24, 587.29 441.04 C 587.43 441.84, 587.47 442.28, 587.62 442.98 C 587.78 443.67, 587.76 444.06, 588.06 444.51 C 588.36 444.95, 588.66 445.17, 589.12 445.20 C 589.58 445.24, 590.01 445.06, 590.36 444.69 C 590.70 444.32, 590.82 443.98, 590.86 443.36 C 590.90 442.73, 590.78 442.35, 590.55 441.58 C 590.32 440.80, 590.04 440.33, 589.72 439.49 C 589.40 438.66, 589.21 438.22, 588.96 437.40 C 588.71 436.58, 588.60 436.17, 588.48 435.40 C 588.35 434.63, 588.32 434.23, 588.32 433.54 C 588.32 432.86, 588.34 432.55, 588.48 431.98 C 588.62 431.40, 588.73 431.14, 589.02 430.68 C 589.30 430.21, 589.47 430.01, 589.90 429.66 C 590.34 429.30, 590.59 429.16, 591.20 428.92 C 591.80 428.67, 592.17 428.57, 592.94 428.43 C 593.71 428.30, 594.15 428.28, 595.05 428.25 C 595.94 428.22, 596.52 428.32, 597.41 428.30 C 598.30 428.27, 598.77 428.27, 599.49 428.14 C 600.21 428.01, 600.68 427.95, 601.02 427.65 C 601.35 427.34, 601.42 427.01, 601.17 426.62 C 600.92 426.23, 600.50 426.00, 599.78 425.70 C 599.07 425.40, 598.57 425.24, 597.60 425.11 C 596.62 424.98, 595.95 424.98, 594.89 425.05 C 593.83 425.12, 593.28 425.22, 592.30 425.46 C 591.32 425.71, 590.83 425.85, 589.98 426.27 C 589.14 426.69, 588.73 426.96, 588.07 427.56 C 587.42 428.17, 587.14 428.54, 586.70 429.28 C 586.26 430.02, 586.09 430.44, 585.86 431.28 C 585.62 432.11, 585.57 432.55, 585.52 433.45 C 585.47 434.35, 585.51 434.84, 585.60 435.77 C 585.69 436.70, 585.81 437.17, 585.97 438.10 C 586.14 439.03, 586.25 439.51, 586.43 440.43 C 586.61 441.34, 586.62 441.90, 586.86 442.68 C 587.09 443.46, 587.24 443.84, 587.61 444.33 C 587.98 444.82, 588.24 444.98, 588.71 445.11 C 589.18 445.24, 589.59 445.18, 589.97 444.96 C 590.36 444.74, 590.52 444.48, 590.63 443.99 C 590.75 443.50, 590.60 443.18, 590.54 442.51 C 590.47 441.83, 590.39 441.39, 590.30 440.60 C 590.21 439.81, 590.15 439.36, 590.08 438.53 C 590.02 437.71, 590.03 437.25, 589.96 436.47 C 589.89 435.69, 589.88 435.26, 589.75 434.62 C 589.61 433.99, 589.53 433.72, 589.30 433.30 C 589.07 432.87, 588.97 432.64, 588.59 432.48 C 588.21 432.32, 587.79 432.31, 587.41 432.48" style="stroke: white; fill: white;"/><path d="M 610.01,416.14 C 609.67 416.31, 609.61 416.49, 609.43 416.89 C 609.25 417.30, 609.17 417.53, 609.13 418.17 C 609.09 418.81, 609.15 419.23, 609.24 420.08 C 609.32 420.94, 609.42 421.42, 609.55 422.45 C 609.68 423.48, 609.75 424.05, 609.89 425.23 C 610.04 426.41, 610.10 427.06, 610.27 428.34 C 610.43 429.63, 610.52 430.32, 610.70 431.66 C 610.88 432.99, 610.98 433.70, 611.18 435.03 C 611.38 436.36, 611.48 437.04, 611.69 438.32 C 611.90 439.60, 612.02 440.25, 612.23 441.44 C 612.43 442.62, 612.51 443.22, 612.72 444.23 C 612.93 445.25, 613.02 445.81, 613.28 446.52 C 613.55 447.23, 613.77 447.43, 614.04 447.78 C 614.31 448.14, 614.39 448.22, 614.63 448.30 C 614.87 448.39, 615.05 448.37, 615.25 448.20 C 615.45 448.04, 615.52 447.92, 615.64 447.48 C 615.76 447.05, 615.87 446.77, 615.86 446.02 C 615.84 445.27, 615.71 444.73, 615.56 443.72 C 615.40 442.71, 615.27 442.12, 615.08 440.95 C 614.88 439.78, 614.77 439.14, 614.58 437.87 C 614.40 436.60, 614.31 435.94, 614.14 434.62 C 613.97 433.30, 613.89 432.60, 613.74 431.27 C 613.58 429.94, 613.50 429.26, 613.36 427.98 C 613.23 426.70, 613.15 426.06, 613.04 424.89 C 612.93 423.72, 612.88 423.15, 612.81 422.13 C 612.73 421.10, 612.75 420.61, 612.67 419.76 C 612.60 418.91, 612.57 418.48, 612.42 417.86 C 612.26 417.24, 612.15 417.03, 611.89 416.66 C 611.64 416.29, 611.54 416.12, 611.16 416.02 C 610.79 415.91, 610.36 415.96, 610.01 416.14" style="stroke: white; fill: white;"/><path d="M 605.45,436.24 C 605.71 436.54, 605.87 436.55, 606.35 436.67 C 606.84 436.78, 607.12 436.82, 607.88 436.81 C 608.63 436.80, 609.10 436.70, 610.12 436.60 C 611.14 436.50, 611.76 436.42, 612.96 436.32 C 614.17 436.21, 614.85 436.15, 616.15 436.06 C 617.46 435.97, 618.15 435.93, 619.48 435.86 C 620.82 435.79, 621.52 435.77, 622.82 435.71 C 624.12 435.65, 624.79 435.63, 626.00 435.56 C 627.21 435.50, 627.80 435.47, 628.87 435.38 C 629.93 435.30, 630.44 435.27, 631.32 435.15 C 632.20 435.02, 632.64 434.98, 633.27 434.76 C 633.90 434.53, 634.14 434.34, 634.47 434.04 C 634.80 433.74, 634.90 433.53, 634.92 433.24 C 634.93 432.95, 634.75 432.75, 634.54 432.59 C 634.33 432.42, 634.22 432.48, 633.88 432.43 C 633.53 432.38, 633.38 432.32, 632.81 432.32 C 632.24 432.33, 631.86 432.40, 631.03 432.45 C 630.21 432.51, 629.73 432.55, 628.70 432.60 C 627.67 432.64, 627.08 432.65, 625.88 432.68 C 624.69 432.71, 624.02 432.71, 622.72 432.74 C 621.42 432.77, 620.71 432.79, 619.36 432.82 C 618.02 432.86, 617.32 432.88, 616.00 432.92 C 614.68 432.96, 614.00 432.97, 612.76 433.01 C 611.52 433.05, 610.88 433.02, 609.80 433.12 C 608.72 433.21, 608.18 433.25, 607.37 433.48 C 606.56 433.70, 606.21 433.89, 605.75 434.23 C 605.30 434.58, 605.15 434.80, 605.09 435.20 C 605.03 435.60, 605.20 435.95, 605.45 436.24" style="stroke: white; fill: white;"/><path d="M 631.72,436.94 C 631.80 437.24, 631.77 437.36, 631.97 437.59 C 632.17 437.83, 632.33 438.03, 632.71 438.12 C 633.10 438.20, 633.37 438.12, 633.90 438.01 C 634.44 437.90, 634.76 437.77, 635.39 437.57 C 636.03 437.37, 636.38 437.25, 637.08 437.01 C 637.77 436.78, 638.16 436.65, 638.87 436.38 C 639.58 436.10, 639.96 435.96, 640.62 435.63 C 641.28 435.30, 641.63 435.14, 642.19 434.74 C 642.76 434.34, 643.04 434.14, 643.45 433.64 C 643.85 433.15, 644.03 432.86, 644.19 432.28 C 644.36 431.69, 644.40 431.33, 644.28 430.71 C 644.15 430.09, 644.00 429.72, 643.56 429.20 C 643.13 428.68, 642.79 428.44, 642.10 428.12 C 641.40 427.79, 640.98 427.69, 640.10 427.57 C 639.23 427.45, 638.72 427.43, 637.71 427.50 C 636.70 427.58, 636.14 427.66, 635.06 427.93 C 633.98 428.19, 633.39 428.38, 632.31 428.82 C 631.23 429.25, 630.67 429.51, 629.67 430.10 C 628.68 430.69, 628.18 431.03, 627.33 431.75 C 626.47 432.46, 626.05 432.84, 625.40 433.67 C 624.74 434.50, 624.44 434.96, 624.05 435.89 C 623.67 436.82, 623.52 437.32, 623.46 438.31 C 623.40 439.29, 623.44 439.84, 623.76 440.82 C 624.08 441.80, 624.34 442.33, 625.05 443.21 C 625.75 444.09, 626.22 444.52, 627.28 445.24 C 628.34 445.97, 628.97 446.30, 630.34 446.84 C 631.70 447.38, 632.49 447.60, 634.09 447.96 C 635.70 448.31, 636.59 448.43, 638.35 448.63 C 640.10 448.82, 641.06 448.88, 642.88 448.94 C 644.70 448.99, 645.68 448.97, 647.44 448.91 C 649.21 448.84, 650.10 448.76, 651.70 448.61 C 653.30 448.46, 654.09 448.37, 655.44 448.14 C 656.79 447.91, 657.44 447.75, 658.45 447.48 C 659.45 447.20, 659.85 447.06, 660.46 446.75 C 661.07 446.44, 661.23 446.23, 661.51 445.93 C 661.79 445.62, 661.85 445.48, 661.84 445.23 C 661.83 444.98, 661.67 444.80, 661.48 444.68 C 661.28 444.56, 661.20 444.61, 660.86 444.61 C 660.53 444.60, 660.40 444.58, 659.80 444.65 C 659.21 444.72, 658.85 444.79, 657.90 444.94 C 656.95 445.09, 656.32 445.22, 655.04 445.38 C 653.75 445.54, 653.00 445.63, 651.46 445.73 C 649.93 445.84, 649.06 445.88, 647.36 445.91 C 645.67 445.93, 644.73 445.93, 643.00 445.85 C 641.27 445.78, 640.35 445.71, 638.70 445.52 C 637.06 445.32, 636.22 445.20, 634.78 444.88 C 633.33 444.56, 632.63 444.36, 631.46 443.92 C 630.29 443.49, 629.78 443.22, 628.93 442.71 C 628.09 442.19, 627.76 441.90, 627.24 441.35 C 626.71 440.79, 626.55 440.50, 626.32 439.92 C 626.09 439.35, 626.04 439.06, 626.08 438.47 C 626.12 437.88, 626.22 437.58, 626.51 436.98 C 626.80 436.38, 627.02 436.05, 627.55 435.45 C 628.07 434.86, 628.42 434.55, 629.13 434.00 C 629.85 433.45, 630.28 433.17, 631.14 432.71 C 632.00 432.26, 632.50 432.06, 633.43 431.72 C 634.36 431.38, 634.88 431.23, 635.78 431.03 C 636.69 430.83, 637.15 430.76, 637.93 430.71 C 638.72 430.65, 639.09 430.70, 639.70 430.76 C 640.31 430.83, 640.58 430.93, 640.99 431.02 C 641.40 431.12, 641.54 431.17, 641.76 431.23 C 641.97 431.30, 642.02 431.28, 642.08 431.33 C 642.14 431.38, 642.16 431.39, 642.07 431.48 C 641.98 431.57, 641.90 431.63, 641.63 431.80 C 641.36 431.98, 641.15 432.11, 640.71 432.33 C 640.26 432.56, 639.99 432.70, 639.42 432.92 C 638.85 433.14, 638.50 433.25, 637.85 433.44 C 637.20 433.64, 636.83 433.73, 636.17 433.89 C 635.51 434.04, 635.16 434.11, 634.56 434.22 C 633.95 434.33, 633.62 434.33, 633.15 434.43 C 632.68 434.54, 632.50 434.54, 632.21 434.73 C 631.93 434.91, 631.86 435.08, 631.74 435.35 C 631.61 435.62, 631.58 435.76, 631.58 436.07 C 631.58 436.39, 631.64 436.63, 631.72 436.94" style="stroke: white; fill: white;"/><path d="M 708.84,432.56 C 709.06 432.15, 709.00 431.77, 708.83 431.24 C 708.65 430.72, 708.46 430.41, 707.99 429.91 C 707.52 429.41, 707.14 429.11, 706.45 428.72 C 705.77 428.34, 705.37 428.22, 704.56 427.99 C 703.75 427.75, 703.33 427.64, 702.41 427.55 C 701.49 427.46, 700.97 427.43, 699.95 427.52 C 698.93 427.61, 698.38 427.72, 697.31 428.00 C 696.24 428.29, 695.67 428.48, 694.61 428.95 C 693.54 429.42, 692.98 429.71, 691.98 430.37 C 690.97 431.04, 690.45 431.43, 689.59 432.26 C 688.72 433.09, 688.30 433.58, 687.65 434.53 C 687.00 435.49, 686.71 436.02, 686.34 437.04 C 685.96 438.07, 685.82 438.62, 685.77 439.66 C 685.73 440.69, 685.79 441.26, 686.10 442.22 C 686.41 443.19, 686.69 443.68, 687.33 444.49 C 687.98 445.30, 688.41 445.69, 689.34 446.28 C 690.26 446.87, 690.85 447.13, 691.97 447.46 C 693.10 447.79, 693.75 447.87, 694.97 447.92 C 696.19 447.98, 696.84 447.93, 698.05 447.74 C 699.27 447.55, 699.92 447.38, 701.06 446.97 C 702.20 446.56, 702.77 446.27, 703.78 445.67 C 704.78 445.08, 705.24 444.73, 706.07 443.99 C 706.90 443.25, 707.29 442.84, 707.92 441.99 C 708.55 441.14, 708.81 440.67, 709.21 439.75 C 709.62 438.83, 709.76 438.34, 709.96 437.41 C 710.15 436.48, 710.16 435.99, 710.18 435.10 C 710.20 434.22, 710.21 433.75, 710.06 432.97 C 709.91 432.19, 709.83 431.68, 709.43 431.20 C 709.03 430.72, 708.59 430.56, 708.05 430.56 C 707.51 430.56, 707.12 430.76, 706.73 431.20 C 706.33 431.64, 706.15 432.00, 706.07 432.76 C 705.99 433.53, 706.10 434.06, 706.32 435.01 C 706.55 435.95, 706.82 436.50, 707.19 437.50 C 707.57 438.50, 707.77 439.01, 708.19 440.00 C 708.62 441.00, 708.84 441.51, 709.33 442.46 C 709.82 443.41, 710.08 443.92, 710.65 444.76 C 711.23 445.60, 711.58 446.06, 712.19 446.65 C 712.81 447.24, 713.17 447.45, 713.73 447.71 C 714.29 447.97, 714.61 448.04, 714.98 447.95 C 715.34 447.86, 715.51 447.61, 715.56 447.25 C 715.60 446.89, 715.43 446.65, 715.19 446.16 C 714.95 445.67, 714.78 445.40, 714.36 444.79 C 713.95 444.18, 713.60 443.84, 713.12 443.11 C 712.64 442.37, 712.37 441.97, 711.96 441.13 C 711.54 440.29, 711.35 439.82, 711.04 438.90 C 710.72 437.98, 710.60 437.48, 710.39 436.54 C 710.18 435.59, 710.17 435.03, 709.99 434.18 C 709.81 433.33, 709.75 432.88, 709.49 432.30 C 709.22 431.71, 709.04 431.49, 708.67 431.25 C 708.29 431.02, 707.95 430.97, 707.60 431.12 C 707.24 431.27, 707.00 431.54, 706.90 432.01 C 706.80 432.48, 707.01 432.85, 707.10 433.47 C 707.19 434.09, 707.32 434.43, 707.35 435.11 C 707.37 435.78, 707.35 436.15, 707.21 436.85 C 707.07 437.56, 706.97 437.93, 706.67 438.62 C 706.36 439.31, 706.17 439.67, 705.68 440.32 C 705.19 440.97, 704.89 441.30, 704.22 441.87 C 703.55 442.45, 703.16 442.73, 702.34 443.19 C 701.51 443.65, 701.03 443.87, 700.09 444.18 C 699.14 444.50, 698.61 444.63, 697.61 444.77 C 696.62 444.91, 696.08 444.93, 695.12 444.88 C 694.15 444.83, 693.64 444.75, 692.79 444.53 C 691.93 444.30, 691.51 444.13, 690.84 443.77 C 690.17 443.41, 689.88 443.19, 689.44 442.71 C 689.00 442.24, 688.82 441.96, 688.63 441.39 C 688.43 440.81, 688.38 440.49, 688.44 439.82 C 688.50 439.16, 688.61 438.78, 688.92 438.06 C 689.23 437.33, 689.46 436.93, 690.00 436.20 C 690.54 435.47, 690.89 435.09, 691.62 434.42 C 692.34 433.76, 692.78 433.43, 693.62 432.90 C 694.46 432.36, 694.93 432.11, 695.82 431.73 C 696.72 431.35, 697.20 431.20, 698.08 430.98 C 698.97 430.76, 699.42 430.70, 700.24 430.62 C 701.06 430.54, 701.47 430.54, 702.17 430.58 C 702.87 430.61, 703.21 430.64, 703.74 430.80 C 704.27 430.96, 704.43 431.08, 704.83 431.36 C 705.23 431.64, 705.37 431.90, 705.74 432.21 C 706.10 432.53, 706.24 432.71, 706.64 432.93 C 707.05 433.15, 707.32 433.37, 707.76 433.29 C 708.20 433.22, 708.63 432.97, 708.84 432.56" style="stroke: white; fill: white;"/><path d="M 718.72,429.30 C 718.41 429.55, 718.36 429.74, 718.28 430.21 C 718.19 430.67, 718.17 430.97, 718.28 431.62 C 718.40 432.28, 718.58 432.69, 718.87 433.48 C 719.16 434.27, 719.38 434.71, 719.75 435.59 C 720.12 436.47, 720.31 436.94, 720.71 437.87 C 721.10 438.79, 721.30 439.28, 721.73 440.20 C 722.15 441.12, 722.38 441.60, 722.83 442.47 C 723.29 443.33, 723.52 443.77, 724.00 444.52 C 724.48 445.27, 724.73 445.65, 725.23 446.23 C 725.73 446.81, 725.97 447.08, 726.52 447.43 C 727.07 447.77, 727.37 447.91, 727.97 447.95 C 728.58 447.99, 728.99 447.93, 729.55 447.63 C 730.12 447.33, 730.43 447.04, 730.82 446.45 C 731.21 445.85, 731.29 445.46, 731.50 444.65 C 731.71 443.85, 731.72 443.38, 731.85 442.44 C 731.99 441.49, 732.04 440.96, 732.18 439.93 C 732.32 438.90, 732.39 438.34, 732.55 437.28 C 732.70 436.22, 732.79 435.67, 732.95 434.65 C 733.11 433.63, 733.19 433.10, 733.35 432.17 C 733.50 431.25, 733.64 430.81, 733.73 430.01 C 733.83 429.21, 733.86 428.80, 733.80 428.19 C 733.74 427.58, 733.68 427.25, 733.41 426.96 C 733.15 426.68, 732.84 426.61, 732.49 426.76 C 732.13 426.92, 731.93 427.19, 731.62 427.73 C 731.32 428.27, 731.19 428.68, 730.96 429.46 C 730.74 430.24, 730.70 430.71, 730.51 431.65 C 730.32 432.58, 730.21 433.10, 730.01 434.13 C 729.81 435.15, 729.70 435.71, 729.50 436.76 C 729.30 437.82, 729.19 438.39, 729.00 439.41 C 728.80 440.44, 728.70 440.98, 728.53 441.89 C 728.36 442.80, 728.26 443.27, 728.16 443.98 C 728.06 444.68, 728.02 444.99, 728.03 445.42 C 728.04 445.84, 728.13 445.97, 728.20 446.12 C 728.27 446.26, 728.40 446.25, 728.39 446.15 C 728.37 446.04, 728.33 445.92, 728.13 445.61 C 727.93 445.29, 727.73 445.08, 727.40 444.57 C 727.06 444.05, 726.84 443.73, 726.46 443.04 C 726.07 442.35, 725.85 441.94, 725.46 441.13 C 725.06 440.32, 724.86 439.86, 724.48 438.98 C 724.11 438.10, 723.91 437.62, 723.58 436.72 C 723.25 435.82, 723.09 435.34, 722.81 434.46 C 722.53 433.58, 722.44 433.10, 722.18 432.31 C 721.92 431.53, 721.79 431.11, 721.49 430.53 C 721.19 429.96, 721.02 429.75, 720.68 429.44 C 720.35 429.12, 720.20 428.99, 719.81 428.96 C 719.42 428.93, 719.03 429.05, 718.72 429.30" style="stroke: white; fill: white;"/><path d="M 740.99,439.67 C 741.33 439.94, 741.62 439.94, 742.20 439.93 C 742.77 439.92, 743.13 439.86, 743.88 439.62 C 744.63 439.38, 745.11 439.16, 745.96 438.74 C 746.80 438.31, 747.25 438.02, 748.11 437.52 C 748.96 437.02, 749.42 436.76, 750.23 436.24 C 751.03 435.73, 751.45 435.47, 752.15 434.94 C 752.85 434.41, 753.20 434.15, 753.72 433.58 C 754.24 433.02, 754.48 432.72, 754.75 432.10 C 755.01 431.47, 755.09 431.11, 755.03 430.46 C 754.97 429.81, 754.86 429.40, 754.45 428.84 C 754.04 428.27, 753.70 427.99, 752.99 427.65 C 752.27 427.30, 751.81 427.21, 750.88 427.13 C 749.94 427.05, 749.40 427.09, 748.31 427.24 C 747.22 427.40, 746.61 427.54, 745.45 427.90 C 744.28 428.26, 743.64 428.50, 742.47 429.05 C 741.30 429.60, 740.67 429.92, 739.60 430.64 C 738.52 431.36, 737.97 431.79, 737.09 432.65 C 736.21 433.52, 735.79 433.99, 735.21 434.95 C 734.62 435.92, 734.38 436.45, 734.16 437.48 C 733.94 438.51, 733.90 439.08, 734.11 440.11 C 734.32 441.14, 734.55 441.70, 735.21 442.63 C 735.86 443.57, 736.32 444.02, 737.38 444.77 C 738.44 445.52, 739.10 445.86, 740.49 446.40 C 741.88 446.94, 742.70 447.15, 744.34 447.47 C 745.98 447.80, 746.90 447.89, 748.67 448.01 C 750.45 448.14, 751.41 448.13, 753.22 448.09 C 755.04 448.05, 755.99 447.99, 757.75 447.81 C 759.50 447.62, 760.51 447.51, 761.99 447.17 C 763.47 446.82, 764.17 446.54, 765.15 446.09 C 766.13 445.63, 766.61 445.29, 766.91 444.88 C 767.21 444.46, 767.10 444.18, 766.64 444.00 C 766.18 443.82, 765.64 443.91, 764.61 443.97 C 763.58 444.02, 762.92 444.10, 761.49 444.26 C 760.06 444.42, 759.11 444.61, 757.45 444.77 C 755.78 444.92, 754.87 445.01, 753.16 445.03 C 751.46 445.06, 750.55 445.03, 748.91 444.90 C 747.27 444.76, 746.42 444.65, 744.95 444.36 C 743.49 444.07, 742.77 443.87, 741.59 443.45 C 740.41 443.03, 739.88 442.76, 739.04 442.26 C 738.20 441.76, 737.88 441.48, 737.39 440.94 C 736.90 440.40, 736.74 440.13, 736.59 439.55 C 736.44 438.98, 736.46 438.69, 736.64 438.07 C 736.82 437.45, 736.99 437.11, 737.48 436.45 C 737.96 435.79, 738.31 435.43, 739.07 434.78 C 739.82 434.13, 740.30 433.77, 741.24 433.19 C 742.18 432.62, 742.73 432.34, 743.76 431.90 C 744.78 431.46, 745.36 431.27, 746.36 430.99 C 747.36 430.70, 747.89 430.61, 748.76 430.49 C 749.63 430.37, 750.06 430.39, 750.72 430.39 C 751.38 430.39, 751.65 430.45, 752.06 430.48 C 752.48 430.50, 752.60 430.50, 752.79 430.52 C 752.97 430.55, 753.01 430.51, 753.00 430.59 C 752.98 430.67, 752.94 430.72, 752.72 430.93 C 752.51 431.14, 752.34 431.30, 751.90 431.63 C 751.45 431.96, 751.15 432.18, 750.51 432.58 C 749.87 432.99, 749.47 433.23, 748.69 433.65 C 747.92 434.07, 747.46 434.30, 746.62 434.69 C 745.78 435.08, 745.30 435.24, 744.48 435.60 C 743.66 435.97, 743.18 436.13, 742.51 436.51 C 741.85 436.90, 741.55 437.11, 741.16 437.52 C 740.76 437.93, 740.55 438.14, 740.52 438.57 C 740.49 439.00, 740.65 439.40, 740.99 439.67" style="stroke: white; fill: white;"/><path d="M 779.63,430.15 C 779.70 429.70, 779.55 429.34, 779.18 428.93 C 778.81 428.51, 778.46 428.30, 777.78 428.06 C 777.10 427.82, 776.62 427.72, 775.77 427.71 C 774.92 427.71, 774.45 427.82, 773.53 428.03 C 772.61 428.24, 772.13 428.38, 771.17 428.75 C 770.21 429.12, 769.68 429.35, 768.72 429.88 C 767.75 430.41, 767.24 430.73, 766.34 431.40 C 765.45 432.08, 765.00 432.46, 764.26 433.25 C 763.52 434.05, 763.15 434.48, 762.64 435.37 C 762.13 436.27, 761.89 436.76, 761.69 437.73 C 761.50 438.70, 761.46 439.25, 761.64 440.22 C 761.83 441.20, 762.01 441.73, 762.60 442.62 C 763.19 443.52, 763.61 443.96, 764.58 444.69 C 765.56 445.43, 766.17 445.75, 767.46 446.28 C 768.75 446.80, 769.51 446.98, 771.04 447.33 C 772.57 447.67, 773.43 447.82, 775.11 448.00 C 776.79 448.17, 777.83 448.24, 779.44 448.20 C 781.05 448.17, 781.92 448.08, 783.15 447.84 C 784.37 447.59, 785.10 447.36, 785.58 446.98 C 786.05 446.61, 786.02 446.28, 785.52 445.95 C 785.03 445.63, 784.29 445.56, 783.09 445.36 C 781.89 445.17, 781.06 445.11, 779.53 444.99 C 778.00 444.87, 777.00 444.91, 775.43 444.76 C 773.87 444.61, 773.07 444.51, 771.71 444.23 C 770.34 443.94, 769.68 443.75, 768.60 443.35 C 767.51 442.96, 767.05 442.71, 766.29 442.24 C 765.54 441.77, 765.25 441.51, 764.83 441.01 C 764.41 440.51, 764.30 440.26, 764.19 439.73 C 764.08 439.19, 764.10 438.91, 764.26 438.33 C 764.42 437.75, 764.58 437.44, 765.00 436.83 C 765.41 436.23, 765.71 435.89, 766.34 435.30 C 766.96 434.71, 767.36 434.40, 768.13 433.87 C 768.90 433.34, 769.36 433.08, 770.19 432.65 C 771.03 432.22, 771.50 432.02, 772.31 431.71 C 773.12 431.40, 773.55 431.26, 774.24 431.10 C 774.93 430.93, 775.23 430.88, 775.76 430.88 C 776.30 430.87, 776.50 431.00, 776.91 431.07 C 777.33 431.14, 777.45 431.23, 777.84 431.25 C 778.22 431.26, 778.48 431.38, 778.83 431.16 C 779.19 430.94, 779.56 430.59, 779.63 430.15" style="stroke: white; fill: white;"/><path d="M 822.69,428.58 C 822.39 428.81, 822.33 428.98, 822.23 429.40 C 822.14 429.81, 822.12 430.06, 822.22 430.65 C 822.33 431.24, 822.48 431.60, 822.76 432.33 C 823.04 433.07, 823.26 433.48, 823.61 434.33 C 823.97 435.18, 824.15 435.66, 824.54 436.60 C 824.93 437.54, 825.15 438.05, 825.58 439.02 C 826.01 439.98, 826.23 440.49, 826.69 441.43 C 827.16 442.37, 827.40 442.84, 827.88 443.71 C 828.37 444.57, 828.62 445.01, 829.12 445.76 C 829.62 446.50, 829.87 446.86, 830.38 447.43 C 830.89 448.01, 831.12 448.27, 831.67 448.62 C 832.22 448.96, 832.51 449.10, 833.11 449.15 C 833.71 449.21, 834.11 449.14, 834.68 448.87 C 835.25 448.60, 835.55 448.35, 835.97 447.79 C 836.39 447.24, 836.50 446.87, 836.76 446.11 C 837.02 445.35, 837.07 444.90, 837.28 443.99 C 837.49 443.08, 837.59 442.58, 837.83 441.57 C 838.06 440.56, 838.18 440.00, 838.45 438.96 C 838.71 437.91, 838.87 437.37, 839.16 436.33 C 839.44 435.29, 839.61 434.75, 839.88 433.76 C 840.15 432.78, 840.30 432.29, 840.51 431.40 C 840.72 430.52, 840.87 430.12, 840.93 429.36 C 840.98 428.59, 841.03 428.01, 840.78 427.59 C 840.52 427.17, 840.10 427.04, 839.66 427.26 C 839.22 427.47, 838.95 427.99, 838.57 428.66 C 838.20 429.33, 838.10 429.75, 837.80 430.61 C 837.49 431.46, 837.38 431.96, 837.07 432.94 C 836.77 433.91, 836.59 434.44, 836.27 435.48 C 835.94 436.52, 835.76 437.07, 835.45 438.13 C 835.13 439.19, 834.99 439.77, 834.71 440.77 C 834.43 441.78, 834.28 442.28, 834.04 443.16 C 833.80 444.04, 833.64 444.49, 833.49 445.18 C 833.34 445.87, 833.30 446.18, 833.29 446.60 C 833.27 447.02, 833.36 447.14, 833.41 447.28 C 833.46 447.43, 833.57 447.43, 833.54 447.33 C 833.51 447.23, 833.48 447.11, 833.27 446.79 C 833.06 446.48, 832.85 446.26, 832.50 445.75 C 832.15 445.24, 831.93 444.92, 831.51 444.23 C 831.10 443.55, 830.87 443.14, 830.44 442.32 C 830.02 441.51, 829.80 441.06, 829.39 440.16 C 828.98 439.25, 828.79 438.75, 828.40 437.81 C 828.02 436.86, 827.81 436.37, 827.47 435.44 C 827.13 434.52, 826.98 434.05, 826.70 433.18 C 826.41 432.32, 826.32 431.87, 826.06 431.13 C 825.80 430.39, 825.70 430.00, 825.40 429.49 C 825.10 428.98, 824.90 428.81, 824.57 428.56 C 824.24 428.31, 824.12 428.23, 823.74 428.23 C 823.36 428.24, 822.99 428.35, 822.69 428.58" style="stroke: white; fill: white;"/><path d="M 855.58,431.04 C 855.67 430.61, 855.57 430.30, 855.27 429.89 C 854.96 429.48, 854.67 429.26, 854.07 429.00 C 853.48 428.74, 853.04 428.64, 852.29 428.58 C 851.55 428.52, 851.15 428.57, 850.34 428.68 C 849.53 428.79, 849.10 428.86, 848.25 429.12 C 847.39 429.38, 846.93 429.56, 846.08 430.00 C 845.23 430.44, 844.79 430.71, 844.01 431.32 C 843.22 431.93, 842.81 432.27, 842.15 433.03 C 841.49 433.79, 841.15 434.22, 840.69 435.12 C 840.23 436.01, 840.03 436.53, 839.85 437.50 C 839.68 438.47, 839.66 439.01, 839.82 439.98 C 839.99 440.95, 840.15 441.47, 840.67 442.34 C 841.18 443.22, 841.56 443.66, 842.40 444.36 C 843.24 445.06, 843.78 445.37, 844.88 445.83 C 845.99 446.29, 846.64 446.45, 847.91 446.65 C 849.18 446.86, 849.89 446.89, 851.22 446.85 C 852.54 446.81, 853.25 446.72, 854.53 446.46 C 855.80 446.20, 856.47 446.01, 857.61 445.57 C 858.75 445.12, 859.29 444.84, 860.22 444.23 C 861.15 443.62, 861.59 443.27, 862.26 442.51 C 862.92 441.75, 863.20 441.30, 863.55 440.42 C 863.90 439.54, 863.98 439.03, 863.99 438.10 C 864.00 437.16, 863.90 436.66, 863.58 435.76 C 863.27 434.87, 863.00 434.41, 862.43 433.63 C 861.86 432.85, 861.47 432.49, 860.75 431.87 C 860.02 431.24, 859.59 430.96, 858.81 430.52 C 858.02 430.08, 857.56 429.86, 856.84 429.67 C 856.12 429.48, 855.73 429.51, 855.20 429.57 C 854.67 429.64, 854.42 429.75, 854.18 430.00 C 853.95 430.26, 853.93 430.54, 854.02 430.86 C 854.12 431.18, 854.31 431.30, 854.66 431.60 C 855.01 431.90, 855.24 432.05, 855.77 432.36 C 856.29 432.67, 856.68 432.78, 857.29 433.14 C 857.89 433.50, 858.24 433.71, 858.79 434.17 C 859.34 434.64, 859.62 434.92, 860.05 435.45 C 860.48 435.97, 860.68 436.27, 860.94 436.81 C 861.20 437.36, 861.30 437.63, 861.34 438.16 C 861.39 438.70, 861.37 438.97, 861.17 439.49 C 860.97 440.00, 860.81 440.27, 860.34 440.75 C 859.86 441.23, 859.52 441.47, 858.78 441.89 C 858.04 442.31, 857.58 442.53, 856.62 442.85 C 855.66 443.17, 855.07 443.32, 853.98 443.50 C 852.88 443.68, 852.26 443.75, 851.15 443.77 C 850.03 443.78, 849.42 443.73, 848.39 443.58 C 847.36 443.42, 846.84 443.30, 846.00 442.99 C 845.15 442.69, 844.78 442.48, 844.18 442.06 C 843.58 441.64, 843.35 441.40, 843.01 440.89 C 842.67 440.39, 842.58 440.11, 842.50 439.55 C 842.41 438.98, 842.44 438.66, 842.59 438.05 C 842.73 437.44, 842.88 437.10, 843.23 436.49 C 843.59 435.88, 843.83 435.56, 844.35 435.01 C 844.87 434.45, 845.19 434.19, 845.82 433.74 C 846.44 433.29, 846.80 433.09, 847.48 432.76 C 848.15 432.43, 848.51 432.30, 849.17 432.10 C 849.82 431.89, 850.18 431.82, 850.74 431.74 C 851.30 431.67, 851.54 431.68, 851.99 431.73 C 852.43 431.78, 852.60 431.91, 852.97 432.00 C 853.33 432.10, 853.46 432.19, 853.83 432.19 C 854.20 432.20, 854.45 432.28, 854.80 432.05 C 855.15 431.82, 855.49 431.47, 855.58 431.04" style="stroke: white; fill: white;"/><path d="M 873.53,414.08 C 873.16 414.21, 873.05 414.36, 872.82 414.76 C 872.60 415.16, 872.49 415.41, 872.41 416.07 C 872.33 416.73, 872.36 417.17, 872.41 418.06 C 872.47 418.95, 872.57 419.46, 872.69 420.52 C 872.80 421.59, 872.85 422.17, 872.97 423.36 C 873.09 424.55, 873.15 425.19, 873.29 426.48 C 873.43 427.76, 873.50 428.45, 873.66 429.78 C 873.82 431.12, 873.91 431.81, 874.09 433.15 C 874.27 434.49, 874.37 435.18, 874.57 436.48 C 874.77 437.77, 874.89 438.43, 875.10 439.63 C 875.31 440.83, 875.43 441.42, 875.62 442.49 C 875.81 443.55, 875.87 444.08, 876.06 444.95 C 876.24 445.81, 876.32 446.25, 876.54 446.82 C 876.75 447.39, 876.93 447.51, 877.14 447.79 C 877.36 448.06, 877.42 448.12, 877.63 448.20 C 877.85 448.27, 878.02 448.27, 878.22 448.16 C 878.42 448.04, 878.49 447.97, 878.64 447.62 C 878.79 447.28, 878.95 447.07, 878.98 446.44 C 879.01 445.81, 878.91 445.37, 878.80 444.48 C 878.69 443.60, 878.58 443.07, 878.41 442.01 C 878.24 440.94, 878.13 440.35, 877.94 439.16 C 877.75 437.97, 877.66 437.33, 877.48 436.05 C 877.30 434.77, 877.22 434.09, 877.06 432.77 C 876.89 431.45, 876.81 430.76, 876.67 429.44 C 876.53 428.12, 876.47 427.45, 876.36 426.18 C 876.25 424.91, 876.20 424.28, 876.12 423.10 C 876.05 421.92, 876.04 421.33, 875.99 420.28 C 875.95 419.23, 875.95 418.71, 875.90 417.85 C 875.85 416.98, 875.86 416.57, 875.74 415.95 C 875.61 415.34, 875.49 415.14, 875.27 414.77 C 875.05 414.41, 874.99 414.28, 874.64 414.15 C 874.29 414.01, 873.89 413.96, 873.53 414.08" style="stroke: white; fill: white;"/><path d="M 867.21,434.88 C 867.54 435.13, 867.80 435.07, 868.37 435.09 C 868.95 435.11, 869.28 435.08, 870.10 434.96 C 870.92 434.84, 871.44 434.69, 872.46 434.51 C 873.48 434.32, 874.08 434.20, 875.21 434.03 C 876.34 433.85, 876.97 433.76, 878.12 433.63 C 879.27 433.50, 879.87 433.46, 880.95 433.38 C 882.02 433.31, 882.57 433.28, 883.51 433.26 C 884.45 433.23, 884.90 433.24, 885.65 433.25 C 886.39 433.27, 886.73 433.29, 887.23 433.33 C 887.73 433.36, 887.91 433.36, 888.14 433.42 C 888.37 433.48, 888.36 433.48, 888.37 433.61 C 888.38 433.74, 888.29 433.79, 888.20 434.07 C 888.11 434.35, 888.01 434.53, 887.93 434.99 C 887.85 435.46, 887.83 435.78, 887.81 436.40 C 887.79 437.01, 887.80 437.38, 887.84 438.06 C 887.87 438.75, 887.91 439.14, 888.00 439.83 C 888.09 440.51, 888.16 440.87, 888.30 441.49 C 888.43 442.11, 888.48 442.43, 888.67 442.92 C 888.85 443.40, 888.92 443.67, 889.25 443.91 C 889.57 444.15, 889.85 444.19, 890.29 444.12 C 890.73 444.05, 891.10 443.89, 891.44 443.56 C 891.77 443.23, 891.92 442.95, 891.96 442.45 C 892.00 441.96, 891.84 441.66, 891.62 441.08 C 891.40 440.49, 891.15 440.18, 890.85 439.54 C 890.54 438.90, 890.38 438.55, 890.08 437.87 C 889.79 437.20, 889.64 436.84, 889.39 436.18 C 889.13 435.52, 889.00 435.18, 888.82 434.57 C 888.64 433.96, 888.57 433.65, 888.47 433.11 C 888.38 432.57, 888.35 432.30, 888.35 431.88 C 888.35 431.46, 888.35 431.30, 888.49 431.00 C 888.63 430.71, 888.72 430.61, 889.04 430.40 C 889.35 430.20, 889.54 430.11, 890.07 429.96 C 890.59 429.80, 890.91 429.73, 891.66 429.64 C 892.40 429.54, 892.86 429.49, 893.78 429.49 C 894.71 429.48, 895.23 429.51, 896.29 429.62 C 897.34 429.72, 897.99 429.89, 899.05 430.00 C 900.10 430.11, 900.68 430.20, 901.56 430.17 C 902.43 430.15, 902.99 430.14, 903.41 429.88 C 903.84 429.62, 903.93 429.29, 903.67 428.85 C 903.41 428.42, 902.93 428.12, 902.12 427.71 C 901.30 427.30, 900.71 427.08, 899.60 426.81 C 898.50 426.55, 897.76 426.48, 896.58 426.38 C 895.41 426.27, 894.81 426.27, 893.73 426.31 C 892.64 426.34, 892.10 426.35, 891.15 426.54 C 890.20 426.72, 889.75 426.85, 888.97 427.22 C 888.20 427.58, 887.85 427.82, 887.29 428.36 C 886.73 428.89, 886.51 429.24, 886.18 429.89 C 885.86 430.55, 885.79 430.92, 885.69 431.64 C 885.58 432.35, 885.61 432.72, 885.68 433.46 C 885.74 434.19, 885.84 434.57, 886.01 435.31 C 886.18 436.05, 886.32 436.42, 886.54 437.15 C 886.76 437.89, 886.90 438.26, 887.13 438.98 C 887.36 439.70, 887.49 440.07, 887.68 440.74 C 887.88 441.42, 887.90 441.80, 888.09 442.35 C 888.28 442.91, 888.33 443.19, 888.63 443.52 C 888.93 443.84, 889.17 443.92, 889.59 443.98 C 890.01 444.03, 890.37 443.94, 890.73 443.78 C 891.10 443.62, 891.29 443.47, 891.42 443.16 C 891.56 442.85, 891.45 442.67, 891.41 442.23 C 891.37 441.80, 891.29 441.54, 891.23 440.99 C 891.16 440.45, 891.13 440.12, 891.09 439.51 C 891.05 438.90, 891.03 438.56, 891.03 437.95 C 891.02 437.35, 891.05 437.05, 891.06 436.47 C 891.07 435.90, 891.13 435.62, 891.08 435.07 C 891.03 434.53, 890.98 434.25, 890.80 433.75 C 890.61 433.24, 890.48 432.98, 890.15 432.54 C 889.82 432.10, 889.63 431.87, 889.14 431.54 C 888.65 431.22, 888.37 431.10, 887.71 430.90 C 887.05 430.71, 886.67 430.67, 885.83 430.57 C 884.99 430.48, 884.52 430.46, 883.51 430.43 C 882.51 430.40, 881.94 430.41, 880.81 430.44 C 879.67 430.47, 879.05 430.51, 877.86 430.58 C 876.66 430.66, 876.02 430.71, 874.83 430.81 C 873.63 430.91, 872.99 430.92, 871.88 431.09 C 870.77 431.27, 870.15 431.37, 869.27 431.69 C 868.39 432.00, 867.98 432.24, 867.46 432.66 C 866.95 433.09, 866.75 433.38, 866.70 433.82 C 866.64 434.27, 866.87 434.62, 867.21 434.88" style="stroke: white; fill: white;"/><path d="M 908.83,439.53 C 909.16 439.77, 909.36 439.74, 909.86 439.73 C 910.36 439.72, 910.65 439.69, 911.31 439.48 C 911.97 439.26, 912.39 439.04, 913.16 438.65 C 913.93 438.26, 914.36 438.00, 915.16 437.54 C 915.96 437.07, 916.40 436.82, 917.16 436.33 C 917.93 435.85, 918.33 435.61, 919.00 435.10 C 919.66 434.59, 920.00 434.34, 920.49 433.78 C 920.99 433.23, 921.22 432.95, 921.47 432.32 C 921.72 431.70, 921.81 431.33, 921.73 430.68 C 921.65 430.02, 921.52 429.61, 921.08 429.05 C 920.65 428.49, 920.30 428.21, 919.55 427.88 C 918.81 427.56, 918.33 427.48, 917.37 427.41 C 916.41 427.35, 915.85 427.40, 914.74 427.57 C 913.64 427.74, 913.01 427.89, 911.85 428.27 C 910.68 428.64, 910.04 428.89, 908.91 429.45 C 907.78 430.01, 907.19 430.34, 906.19 431.07 C 905.20 431.79, 904.70 432.21, 903.94 433.08 C 903.18 433.94, 902.83 434.41, 902.39 435.39 C 901.96 436.36, 901.78 436.91, 901.75 437.94 C 901.72 438.98, 901.81 439.57, 902.23 440.57 C 902.65 441.57, 903.00 442.09, 903.85 442.96 C 904.70 443.84, 905.26 444.25, 906.50 444.95 C 907.73 445.65, 908.49 445.95, 910.03 446.45 C 911.57 446.95, 912.46 447.14, 914.21 447.46 C 915.96 447.77, 916.92 447.88, 918.78 448.04 C 920.63 448.20, 921.63 448.24, 923.49 448.27 C 925.34 448.31, 926.30 448.29, 928.05 448.23 C 929.79 448.18, 930.66 448.12, 932.21 447.99 C 933.75 447.86, 934.51 447.77, 935.78 447.57 C 937.05 447.38, 937.63 447.27, 938.57 447.02 C 939.51 446.76, 939.92 446.63, 940.49 446.31 C 941.06 445.99, 941.19 445.75, 941.41 445.43 C 941.63 445.11, 941.64 444.95, 941.59 444.72 C 941.54 444.50, 941.34 444.40, 941.16 444.30 C 940.98 444.21, 940.97 444.26, 940.69 444.25 C 940.41 444.24, 940.30 444.18, 939.78 444.24 C 939.25 444.30, 938.92 444.41, 938.05 444.54 C 937.18 444.67, 936.64 444.76, 935.44 444.88 C 934.23 445.00, 933.50 445.07, 932.01 445.15 C 930.51 445.24, 929.67 445.28, 927.98 445.29 C 926.30 445.31, 925.36 445.31, 923.58 445.24 C 921.79 445.17, 920.83 445.13, 919.07 444.95 C 917.31 444.77, 916.40 444.66, 914.78 444.35 C 913.17 444.04, 912.36 443.84, 911.00 443.42 C 909.63 442.99, 909.00 442.72, 907.97 442.21 C 906.94 441.69, 906.51 441.39, 905.85 440.84 C 905.18 440.29, 904.95 440.01, 904.64 439.44 C 904.32 438.88, 904.25 438.61, 904.27 438.03 C 904.30 437.45, 904.40 437.15, 904.75 436.55 C 905.09 435.94, 905.36 435.61, 905.98 435.01 C 906.61 434.40, 907.03 434.07, 907.88 433.52 C 908.73 432.97, 909.25 432.69, 910.24 432.26 C 911.22 431.82, 911.79 431.63, 912.79 431.35 C 913.79 431.06, 914.34 430.96, 915.23 430.83 C 916.13 430.70, 916.58 430.71, 917.27 430.70 C 917.96 430.69, 918.26 430.74, 918.69 430.77 C 919.13 430.79, 919.25 430.80, 919.45 430.82 C 919.64 430.84, 919.67 430.81, 919.67 430.88 C 919.66 430.96, 919.62 430.99, 919.42 431.18 C 919.21 431.38, 919.06 431.53, 918.64 431.85 C 918.23 432.16, 917.95 432.37, 917.35 432.74 C 916.75 433.11, 916.37 433.33, 915.64 433.71 C 914.91 434.09, 914.48 434.30, 913.68 434.66 C 912.89 435.02, 912.42 435.15, 911.65 435.50 C 910.88 435.85, 910.44 436.02, 909.84 436.41 C 909.24 436.80, 908.97 437.01, 908.65 437.44 C 908.32 437.86, 908.18 438.12, 908.22 438.53 C 908.25 438.95, 908.50 439.29, 908.83 439.53" style="stroke: white; fill: white;"/><path d="M 987.26,429.83 C 987.32 429.39, 987.17 429.07, 986.82 428.67 C 986.47 428.26, 986.16 428.05, 985.51 427.78 C 984.86 427.51, 984.40 427.40, 983.57 427.31 C 982.74 427.22, 982.27 427.26, 981.36 427.33 C 980.46 427.40, 979.98 427.48, 979.05 427.65 C 978.13 427.82, 977.63 427.92, 976.74 428.18 C 975.84 428.45, 975.36 428.59, 974.57 428.95 C 973.78 429.31, 973.37 429.50, 972.79 429.98 C 972.20 430.47, 971.92 430.75, 971.62 431.38 C 971.33 432.02, 971.22 432.45, 971.31 433.17 C 971.40 433.89, 971.57 434.32, 972.08 434.98 C 972.58 435.64, 972.97 435.93, 973.85 436.48 C 974.72 437.03, 975.28 437.24, 976.45 437.71 C 977.61 438.18, 978.31 438.38, 979.65 438.84 C 981.00 439.29, 981.74 439.51, 983.16 440.00 C 984.57 440.48, 985.35 440.75, 986.72 441.26 C 988.09 441.77, 988.80 442.02, 990.00 442.54 C 991.20 443.06, 991.77 443.33, 992.72 443.86 C 993.68 444.39, 994.12 444.72, 994.79 445.20 C 995.45 445.69, 995.70 445.92, 996.05 446.30 C 996.39 446.68, 996.47 446.84, 996.51 447.10 C 996.55 447.36, 996.50 447.41, 996.25 447.61 C 996.00 447.82, 995.82 447.89, 995.27 448.12 C 994.73 448.34, 994.38 448.49, 993.52 448.73 C 992.66 448.98, 992.12 449.13, 990.97 449.33 C 989.83 449.52, 989.15 449.61, 987.78 449.71 C 986.40 449.80, 985.62 449.83, 984.12 449.80 C 982.62 449.78, 981.79 449.73, 980.28 449.58 C 978.76 449.43, 977.95 449.33, 976.54 449.07 C 975.13 448.81, 974.41 448.64, 973.23 448.30 C 972.04 447.96, 971.48 447.76, 970.62 447.36 C 969.77 446.96, 969.50 446.68, 968.96 446.29 C 968.43 445.90, 968.31 445.70, 967.96 445.41 C 967.61 445.12, 967.53 444.89, 967.22 444.84 C 966.91 444.78, 966.59 444.83, 966.41 445.13 C 966.24 445.44, 966.16 445.78, 966.34 446.37 C 966.51 446.96, 966.68 447.43, 967.29 448.10 C 967.90 448.76, 968.37 449.13, 969.39 449.71 C 970.40 450.29, 971.05 450.55, 972.36 451.01 C 973.68 451.46, 974.45 451.66, 975.97 451.98 C 977.48 452.31, 978.33 452.44, 979.95 452.63 C 981.56 452.82, 982.43 452.89, 984.04 452.95 C 985.64 453.00, 986.47 452.99, 987.97 452.91 C 989.47 452.83, 990.21 452.77, 991.52 452.54 C 992.83 452.32, 993.48 452.19, 994.53 451.79 C 995.59 451.40, 996.07 451.16, 996.81 450.58 C 997.55 450.00, 997.87 449.63, 998.23 448.89 C 998.58 448.16, 998.66 447.70, 998.61 446.91 C 998.56 446.13, 998.40 445.72, 997.97 444.97 C 997.54 444.23, 997.22 443.89, 996.45 443.19 C 995.69 442.50, 995.19 442.14, 994.14 441.48 C 993.09 440.82, 992.48 440.52, 991.22 439.91 C 989.96 439.29, 989.24 438.99, 987.84 438.41 C 986.45 437.83, 985.65 437.53, 984.23 437.00 C 982.82 436.47, 982.06 436.22, 980.76 435.74 C 979.45 435.25, 978.78 435.01, 977.71 434.58 C 976.64 434.15, 976.16 433.92, 975.41 433.59 C 974.66 433.25, 974.39 433.10, 973.96 432.91 C 973.54 432.72, 973.40 432.72, 973.28 432.65 C 973.17 432.58, 973.19 432.63, 973.38 432.55 C 973.56 432.46, 973.75 432.40, 974.20 432.22 C 974.65 432.05, 974.98 431.90, 975.64 431.69 C 976.31 431.48, 976.74 431.35, 977.53 431.17 C 978.32 430.98, 978.78 430.89, 979.59 430.76 C 980.40 430.63, 980.85 430.57, 981.58 430.53 C 982.31 430.49, 982.64 430.50, 983.23 430.56 C 983.82 430.62, 984.07 430.74, 984.53 430.82 C 984.99 430.91, 985.14 430.98, 985.54 430.99 C 985.94 430.99, 986.18 431.08, 986.52 430.85 C 986.87 430.62, 987.20 430.27, 987.26 429.83" style="stroke: white; fill: white;"/><path d="M 1012.59,434.29 C 1012.80 433.89, 1012.78 433.53, 1012.59 433.03 C 1012.39 432.52, 1012.16 432.22, 1011.63 431.77 C 1011.11 431.33, 1010.70 431.10, 1009.97 430.81 C 1009.23 430.52, 1008.80 430.46, 1007.96 430.34 C 1007.11 430.23, 1006.67 430.19, 1005.74 430.22 C 1004.81 430.26, 1004.29 430.31, 1003.32 430.52 C 1002.34 430.73, 1001.83 430.88, 1000.86 431.27 C 999.89 431.66, 999.37 431.90, 998.46 432.46 C 997.54 433.02, 997.07 433.34, 996.29 434.07 C 995.50 434.80, 995.11 435.23, 994.53 436.11 C 993.96 436.99, 993.70 437.50, 993.42 438.48 C 993.14 439.47, 993.06 440.01, 993.12 441.02 C 993.18 442.04, 993.28 442.59, 993.70 443.56 C 994.12 444.53, 994.44 445.03, 995.22 445.86 C 996.00 446.70, 996.52 447.09, 997.59 447.72 C 998.67 448.35, 999.31 448.61, 1000.60 449.01 C 1001.89 449.41, 1002.64 449.54, 1004.04 449.70 C 1005.45 449.85, 1006.22 449.85, 1007.63 449.78 C 1009.04 449.71, 1009.77 449.61, 1011.08 449.34 C 1012.39 449.07, 1013.05 448.89, 1014.19 448.44 C 1015.32 447.99, 1015.86 447.71, 1016.74 447.09 C 1017.63 446.46, 1018.02 446.10, 1018.61 445.32 C 1019.20 444.54, 1019.43 444.09, 1019.69 443.19 C 1019.95 442.28, 1019.99 441.76, 1019.91 440.81 C 1019.83 439.87, 1019.67 439.36, 1019.29 438.46 C 1018.91 437.55, 1018.61 437.10, 1018.01 436.30 C 1017.42 435.50, 1017.03 435.10, 1016.32 434.44 C 1015.61 433.78, 1015.16 433.46, 1014.45 432.99 C 1013.75 432.52, 1013.38 432.31, 1012.79 432.08 C 1012.20 431.86, 1011.93 431.87, 1011.52 431.86 C 1011.11 431.85, 1010.95 431.86, 1010.72 432.03 C 1010.50 432.19, 1010.41 432.41, 1010.39 432.68 C 1010.38 432.96, 1010.47 433.06, 1010.66 433.39 C 1010.85 433.72, 1010.95 433.92, 1011.35 434.33 C 1011.75 434.73, 1012.08 434.95, 1012.66 435.42 C 1013.23 435.90, 1013.63 436.16, 1014.21 436.70 C 1014.80 437.25, 1015.11 437.56, 1015.59 438.16 C 1016.07 438.75, 1016.30 439.09, 1016.61 439.70 C 1016.93 440.30, 1017.06 440.61, 1017.18 441.18 C 1017.31 441.75, 1017.34 442.03, 1017.23 442.55 C 1017.12 443.07, 1017.02 443.32, 1016.64 443.78 C 1016.25 444.25, 1015.97 444.47, 1015.29 444.88 C 1014.61 445.28, 1014.17 445.50, 1013.22 445.81 C 1012.27 446.13, 1011.69 446.26, 1010.55 446.45 C 1009.40 446.64, 1008.74 446.71, 1007.51 446.74 C 1006.28 446.78, 1005.59 446.76, 1004.39 446.62 C 1003.19 446.48, 1002.55 446.35, 1001.49 446.04 C 1000.43 445.73, 999.92 445.51, 999.08 445.07 C 998.24 444.63, 997.86 444.35, 997.29 443.82 C 996.72 443.29, 996.51 443.00, 996.22 442.41 C 995.92 441.82, 995.86 441.50, 995.83 440.88 C 995.79 440.25, 995.84 439.92, 996.05 439.29 C 996.27 438.66, 996.45 438.32, 996.89 437.71 C 997.33 437.10, 997.63 436.79, 998.25 436.25 C 998.87 435.71, 999.25 435.46, 999.99 435.03 C 1000.74 434.60, 1001.17 434.40, 1001.96 434.11 C 1002.75 433.81, 1003.17 433.71, 1003.95 433.55 C 1004.74 433.39, 1005.16 433.35, 1005.88 433.31 C 1006.59 433.27, 1006.95 433.27, 1007.53 433.35 C 1008.10 433.44, 1008.32 433.53, 1008.75 433.73 C 1009.19 433.93, 1009.34 434.14, 1009.70 434.36 C 1010.06 434.57, 1010.19 434.69, 1010.55 434.82 C 1010.92 434.95, 1011.14 435.12, 1011.54 435.01 C 1011.95 434.90, 1012.38 434.69, 1012.59 434.29" style="stroke: white; fill: white;"/><path d="M 1024.50,432.16 C 1024.11 432.11, 1023.87 432.18, 1023.50 432.48 C 1023.13 432.78, 1022.90 433.05, 1022.66 433.66 C 1022.42 434.26, 1022.37 434.69, 1022.31 435.49 C 1022.25 436.29, 1022.29 436.75, 1022.37 437.65 C 1022.46 438.54, 1022.52 439.03, 1022.74 439.95 C 1022.95 440.87, 1023.08 441.35, 1023.45 442.25 C 1023.83 443.14, 1024.06 443.61, 1024.61 444.42 C 1025.16 445.24, 1025.48 445.64, 1026.20 446.32 C 1026.92 447.00, 1027.34 447.33, 1028.20 447.82 C 1029.06 448.32, 1029.55 448.52, 1030.50 448.79 C 1031.45 449.07, 1031.96 449.16, 1032.95 449.20 C 1033.94 449.25, 1034.47 449.21, 1035.43 449.01 C 1036.40 448.82, 1036.88 448.64, 1037.77 448.23 C 1038.65 447.82, 1039.10 447.56, 1039.87 446.95 C 1040.65 446.33, 1041.03 445.94, 1041.64 445.16 C 1042.25 444.38, 1042.49 443.93, 1042.92 443.05 C 1043.35 442.16, 1043.53 441.68, 1043.79 440.75 C 1044.04 439.81, 1044.11 439.30, 1044.19 438.38 C 1044.27 437.46, 1044.26 436.99, 1044.19 436.14 C 1044.12 435.29, 1044.03 434.87, 1043.83 434.15 C 1043.64 433.43, 1043.52 433.09, 1043.22 432.54 C 1042.92 431.99, 1042.80 431.69, 1042.33 431.42 C 1041.86 431.15, 1041.42 431.06, 1040.86 431.21 C 1040.30 431.35, 1039.88 431.62, 1039.52 432.14 C 1039.17 432.66, 1039.10 433.05, 1039.08 433.82 C 1039.05 434.59, 1039.17 435.05, 1039.40 435.98 C 1039.62 436.92, 1039.84 437.46, 1040.20 438.48 C 1040.56 439.51, 1040.75 440.07, 1041.19 441.12 C 1041.63 442.16, 1041.86 442.71, 1042.38 443.71 C 1042.90 444.72, 1043.19 445.23, 1043.79 446.14 C 1044.39 447.05, 1044.71 447.49, 1045.40 448.26 C 1046.08 449.02, 1046.45 449.38, 1047.20 449.97 C 1047.95 450.55, 1048.35 450.82, 1049.13 451.19 C 1049.91 451.56, 1050.37 451.75, 1051.10 451.83 C 1051.83 451.92, 1052.26 451.82, 1052.76 451.62 C 1053.27 451.42, 1053.49 451.18, 1053.62 450.84 C 1053.76 450.49, 1053.62 450.18, 1053.42 449.91 C 1053.23 449.64, 1052.99 449.64, 1052.63 449.49 C 1052.28 449.34, 1052.10 449.33, 1051.64 449.17 C 1051.17 449.02, 1050.87 448.99, 1050.33 448.72 C 1049.78 448.45, 1049.48 448.28, 1048.92 447.82 C 1048.36 447.36, 1048.07 447.07, 1047.53 446.42 C 1046.99 445.77, 1046.73 445.39, 1046.23 444.58 C 1045.74 443.78, 1045.49 443.31, 1045.06 442.39 C 1044.64 441.48, 1044.44 440.98, 1044.11 440.00 C 1043.77 439.03, 1043.63 438.48, 1043.39 437.52 C 1043.14 436.56, 1043.07 436.03, 1042.90 435.20 C 1042.73 434.37, 1042.73 433.95, 1042.53 433.37 C 1042.33 432.79, 1042.21 432.52, 1041.90 432.30 C 1041.59 432.08, 1041.26 432.15, 1040.99 432.25 C 1040.73 432.36, 1040.62 432.56, 1040.58 432.83 C 1040.54 433.10, 1040.69 433.21, 1040.80 433.60 C 1040.91 434.00, 1041.02 434.25, 1041.13 434.80 C 1041.24 435.34, 1041.31 435.68, 1041.35 436.34 C 1041.38 437.00, 1041.37 437.38, 1041.29 438.10 C 1041.21 438.83, 1041.16 439.24, 1040.95 439.97 C 1040.75 440.71, 1040.61 441.10, 1040.29 441.78 C 1039.97 442.46, 1039.78 442.80, 1039.34 443.39 C 1038.90 443.97, 1038.63 444.24, 1038.07 444.69 C 1037.52 445.14, 1037.20 445.34, 1036.56 445.64 C 1035.92 445.94, 1035.57 446.06, 1034.87 446.19 C 1034.18 446.33, 1033.79 446.35, 1033.08 446.32 C 1032.36 446.28, 1031.98 446.23, 1031.30 446.03 C 1030.61 445.83, 1030.26 445.69, 1029.64 445.33 C 1029.02 444.97, 1028.72 444.73, 1028.19 444.23 C 1027.67 443.73, 1027.43 443.43, 1027.04 442.82 C 1026.64 442.20, 1026.47 441.85, 1026.21 441.15 C 1025.95 440.46, 1025.86 440.08, 1025.75 439.34 C 1025.63 438.61, 1025.62 438.20, 1025.63 437.49 C 1025.64 436.79, 1025.73 436.43, 1025.80 435.81 C 1025.88 435.19, 1025.99 434.88, 1025.99 434.40 C 1026.00 433.92, 1025.93 433.76, 1025.82 433.43 C 1025.71 433.10, 1025.71 433.00, 1025.44 432.75 C 1025.18 432.50, 1024.88 432.21, 1024.50 432.16" style="stroke: white; fill: white;"/><path d="M 1056.26,434.62 C 1055.88 434.79, 1055.75 435.00, 1055.54 435.48 C 1055.33 435.95, 1055.23 436.29, 1055.21 437.00 C 1055.18 437.71, 1055.28 438.18, 1055.41 439.03 C 1055.55 439.87, 1055.69 440.32, 1055.88 441.21 C 1056.07 442.10, 1056.17 442.59, 1056.35 443.48 C 1056.53 444.37, 1056.63 444.82, 1056.78 445.65 C 1056.93 446.49, 1056.90 446.96, 1057.11 447.65 C 1057.32 448.34, 1057.44 448.77, 1057.83 449.12 C 1058.23 449.47, 1058.64 449.54, 1059.10 449.41 C 1059.56 449.28, 1059.87 449.02, 1060.12 448.48 C 1060.36 447.94, 1060.42 447.49, 1060.32 446.70 C 1060.22 445.91, 1059.95 445.41, 1059.62 444.54 C 1059.29 443.67, 1059.01 443.20, 1058.68 442.34 C 1058.35 441.48, 1058.19 441.05, 1057.95 440.24 C 1057.71 439.43, 1057.61 439.04, 1057.47 438.29 C 1057.34 437.53, 1057.29 437.15, 1057.28 436.49 C 1057.26 435.83, 1057.27 435.52, 1057.40 434.98 C 1057.52 434.43, 1057.62 434.19, 1057.90 433.75 C 1058.19 433.31, 1058.36 433.12, 1058.83 432.79 C 1059.29 432.45, 1059.58 432.31, 1060.23 432.08 C 1060.88 431.84, 1061.25 431.74, 1062.07 431.62 C 1062.89 431.50, 1063.37 431.46, 1064.31 431.47 C 1065.25 431.47, 1065.78 431.49, 1066.77 431.64 C 1067.77 431.78, 1068.28 431.91, 1069.26 432.17 C 1070.24 432.43, 1070.79 432.69, 1071.68 432.94 C 1072.57 433.19, 1073.01 433.33, 1073.71 433.42 C 1074.41 433.50, 1074.81 433.56, 1075.19 433.38 C 1075.56 433.20, 1075.70 432.93, 1075.59 432.53 C 1075.48 432.12, 1075.21 431.82, 1074.64 431.34 C 1074.07 430.86, 1073.65 430.54, 1072.74 430.11 C 1071.82 429.69, 1071.17 429.50, 1070.06 429.20 C 1068.96 428.90, 1068.36 428.78, 1067.21 428.61 C 1066.06 428.44, 1065.45 428.37, 1064.32 428.37 C 1063.19 428.37, 1062.60 428.41, 1061.56 428.60 C 1060.51 428.80, 1060.00 428.94, 1059.11 429.34 C 1058.21 429.74, 1057.77 430.00, 1057.07 430.59 C 1056.38 431.19, 1056.09 431.57, 1055.63 432.31 C 1055.17 433.05, 1055.00 433.47, 1054.77 434.31 C 1054.54 435.14, 1054.50 435.60, 1054.48 436.49 C 1054.47 437.38, 1054.56 437.84, 1054.69 438.74 C 1054.82 439.63, 1054.95 440.04, 1055.14 440.95 C 1055.33 441.85, 1055.43 442.32, 1055.63 443.25 C 1055.83 444.18, 1055.92 444.73, 1056.14 445.61 C 1056.35 446.50, 1056.40 447.00, 1056.70 447.69 C 1057.01 448.38, 1057.21 448.73, 1057.67 449.08 C 1058.13 449.42, 1058.54 449.49, 1058.99 449.40 C 1059.44 449.31, 1059.73 449.08, 1059.94 448.63 C 1060.15 448.17, 1060.07 447.82, 1060.04 447.13 C 1060.00 446.43, 1059.88 445.99, 1059.75 445.15 C 1059.62 444.31, 1059.52 443.83, 1059.38 442.94 C 1059.24 442.05, 1059.17 441.56, 1059.06 440.68 C 1058.96 439.81, 1058.95 439.35, 1058.86 438.55 C 1058.77 437.75, 1058.76 437.30, 1058.60 436.67 C 1058.45 436.04, 1058.34 435.81, 1058.10 435.40 C 1057.87 434.99, 1057.79 434.80, 1057.42 434.65 C 1057.05 434.49, 1056.63 434.46, 1056.26 434.62" style="stroke: white; fill: white;"/><path d="M 1080.80,434.21 C 1080.43 434.32, 1080.30 434.47, 1080.08 434.82 C 1079.85 435.17, 1079.76 435.39, 1079.67 435.95 C 1079.59 436.50, 1079.61 436.88, 1079.67 437.60 C 1079.73 438.31, 1079.84 438.73, 1079.96 439.54 C 1080.08 440.35, 1080.14 440.79, 1080.28 441.64 C 1080.42 442.50, 1080.49 442.96, 1080.66 443.83 C 1080.83 444.70, 1080.91 445.16, 1081.11 446.00 C 1081.31 446.83, 1081.42 447.29, 1081.67 448.00 C 1081.92 448.71, 1082.05 449.09, 1082.36 449.55 C 1082.68 450.01, 1082.94 450.11, 1083.24 450.29 C 1083.55 450.46, 1083.66 450.45, 1083.88 450.43 C 1084.11 450.40, 1084.21 450.31, 1084.37 450.16 C 1084.52 450.00, 1084.56 449.95, 1084.65 449.65 C 1084.74 449.35, 1084.85 449.16, 1084.82 448.66 C 1084.79 448.16, 1084.66 447.84, 1084.50 447.17 C 1084.35 446.50, 1084.21 446.10, 1084.04 445.32 C 1083.87 444.55, 1083.78 444.11, 1083.65 443.30 C 1083.51 442.48, 1083.46 442.05, 1083.37 441.23 C 1083.28 440.41, 1083.26 439.97, 1083.22 439.20 C 1083.17 438.42, 1083.18 438.04, 1083.15 437.37 C 1083.12 436.71, 1083.17 436.37, 1083.06 435.85 C 1082.95 435.34, 1082.83 435.13, 1082.60 434.81 C 1082.37 434.49, 1082.29 434.38, 1081.93 434.26 C 1081.57 434.14, 1081.17 434.10, 1080.80 434.21" style="stroke: white; fill: white;"/><path d="M 1081.10,423.38 C 1081.52 423.49, 1081.79 423.51, 1081.83 423.41 C 1081.87 423.31, 1081.65 423.11, 1081.31 422.86 C 1080.96 422.61, 1080.52 422.29, 1080.10 422.15 C 1079.69 422.01, 1079.32 422.03, 1079.25 422.17 C 1079.17 422.31, 1079.35 422.61, 1079.72 422.85 C 1080.09 423.09, 1080.68 423.27, 1081.10 423.38" style="stroke: white; fill: white;"/><path d="M 1105.00,434.63 C 1105.04 434.20, 1104.91 433.91, 1104.55 433.51 C 1104.18 433.12, 1103.85 432.90, 1103.20 432.66 C 1102.54 432.41, 1102.07 432.35, 1101.27 432.29 C 1100.46 432.23, 1100.02 432.28, 1099.16 432.35 C 1098.30 432.41, 1097.84 432.45, 1096.98 432.61 C 1096.12 432.76, 1095.66 432.85, 1094.88 433.12 C 1094.09 433.40, 1093.68 433.54, 1093.07 433.98 C 1092.45 434.41, 1092.13 434.68, 1091.79 435.29 C 1091.46 435.91, 1091.33 436.34, 1091.37 437.07 C 1091.41 437.79, 1091.55 438.23, 1092.01 438.91 C 1092.47 439.59, 1092.84 439.91, 1093.67 440.49 C 1094.50 441.07, 1095.04 441.31, 1096.15 441.82 C 1097.27 442.33, 1097.95 442.56, 1099.25 443.05 C 1100.55 443.54, 1101.30 443.78, 1102.66 444.29 C 1104.02 444.80, 1104.76 445.06, 1106.07 445.60 C 1107.38 446.15, 1108.07 446.44, 1109.21 447.00 C 1110.36 447.57, 1110.92 447.87, 1111.81 448.42 C 1112.71 448.96, 1113.11 449.25, 1113.69 449.73 C 1114.28 450.21, 1114.47 450.45, 1114.74 450.82 C 1115.02 451.20, 1115.08 451.35, 1115.07 451.61 C 1115.06 451.87, 1114.98 451.90, 1114.69 452.11 C 1114.40 452.32, 1114.20 452.43, 1113.64 452.67 C 1113.07 452.90, 1112.71 453.06, 1111.86 453.30 C 1111.00 453.54, 1110.47 453.68, 1109.36 453.87 C 1108.24 454.05, 1107.57 454.14, 1106.28 454.23 C 1104.99 454.32, 1104.27 454.34, 1102.91 454.32 C 1101.56 454.30, 1100.82 454.25, 1099.51 454.12 C 1098.20 453.99, 1097.51 453.89, 1096.35 453.68 C 1095.19 453.47, 1094.63 453.34, 1093.73 453.07 C 1092.84 452.81, 1092.49 452.60, 1091.87 452.34 C 1091.26 452.08, 1091.08 451.95, 1090.66 451.78 C 1090.24 451.62, 1090.09 451.46, 1089.78 451.51 C 1089.48 451.56, 1089.21 451.71, 1089.14 452.04 C 1089.06 452.36, 1089.09 452.66, 1089.39 453.15 C 1089.68 453.65, 1089.92 454.01, 1090.61 454.52 C 1091.30 455.02, 1091.80 455.26, 1092.84 455.66 C 1093.87 456.06, 1094.50 456.23, 1095.76 456.52 C 1097.03 456.81, 1097.76 456.93, 1099.17 457.12 C 1100.58 457.30, 1101.36 457.37, 1102.82 457.43 C 1104.28 457.49, 1105.06 457.49, 1106.47 457.42 C 1107.88 457.35, 1108.61 457.30, 1109.89 457.09 C 1111.16 456.87, 1111.79 456.74, 1112.84 456.37 C 1113.90 455.99, 1114.39 455.77, 1115.15 455.22 C 1115.91 454.67, 1116.24 454.32, 1116.65 453.61 C 1117.07 452.90, 1117.20 452.45, 1117.22 451.67 C 1117.24 450.89, 1117.11 450.46, 1116.75 449.70 C 1116.39 448.94, 1116.12 448.60, 1115.43 447.88 C 1114.75 447.17, 1114.31 446.81, 1113.34 446.12 C 1112.36 445.42, 1111.77 445.08, 1110.56 444.41 C 1109.35 443.75, 1108.64 443.42, 1107.30 442.80 C 1105.95 442.19, 1105.19 441.89, 1103.83 441.33 C 1102.46 440.76, 1101.72 440.50, 1100.46 439.98 C 1099.21 439.46, 1098.57 439.20, 1097.55 438.75 C 1096.53 438.29, 1096.08 438.04, 1095.37 437.68 C 1094.66 437.33, 1094.39 437.17, 1094.00 436.98 C 1093.60 436.79, 1093.50 436.79, 1093.41 436.72 C 1093.31 436.65, 1093.35 436.69, 1093.53 436.62 C 1093.72 436.55, 1093.90 436.49, 1094.33 436.37 C 1094.77 436.24, 1095.08 436.13, 1095.71 436.00 C 1096.33 435.87, 1096.74 435.79, 1097.46 435.70 C 1098.19 435.61, 1098.62 435.55, 1099.32 435.54 C 1100.02 435.52, 1100.36 435.54, 1100.96 435.61 C 1101.57 435.68, 1101.84 435.80, 1102.34 435.87 C 1102.83 435.93, 1103.03 435.97, 1103.43 435.93 C 1103.84 435.89, 1104.05 435.92, 1104.37 435.67 C 1104.68 435.41, 1104.97 435.06, 1105.00 434.63" style="stroke: white; fill: white;"/><path d="M 1130.49,421.24 C 1130.13 421.37, 1130.05 421.52, 1129.84 421.86 C 1129.63 422.20, 1129.53 422.39, 1129.42 422.92 C 1129.31 423.46, 1129.32 423.82, 1129.30 424.54 C 1129.27 425.25, 1129.32 425.66, 1129.30 426.50 C 1129.29 427.34, 1129.25 427.80, 1129.23 428.75 C 1129.21 429.70, 1129.19 430.23, 1129.19 431.25 C 1129.20 432.28, 1129.21 432.81, 1129.25 433.86 C 1129.29 434.92, 1129.31 435.47, 1129.38 436.54 C 1129.45 437.60, 1129.50 438.15, 1129.61 439.20 C 1129.72 440.24, 1129.79 440.77, 1129.93 441.77 C 1130.07 442.78, 1130.11 443.31, 1130.30 444.22 C 1130.49 445.13, 1130.65 445.66, 1130.88 446.33 C 1131.10 447.01, 1131.22 447.21, 1131.43 447.60 C 1131.63 447.99, 1131.72 448.07, 1131.91 448.28 C 1132.09 448.48, 1132.12 448.57, 1132.34 448.62 C 1132.57 448.67, 1132.82 448.64, 1133.02 448.54 C 1133.22 448.43, 1133.24 448.34, 1133.36 448.08 C 1133.47 447.81, 1133.56 447.66, 1133.60 447.19 C 1133.65 446.73, 1133.66 446.45, 1133.59 445.74 C 1133.51 445.04, 1133.38 444.53, 1133.23 443.65 C 1133.07 442.77, 1132.94 442.31, 1132.80 441.36 C 1132.66 440.42, 1132.62 439.91, 1132.53 438.91 C 1132.44 437.91, 1132.40 437.38, 1132.35 436.36 C 1132.30 435.33, 1132.28 434.80, 1132.26 433.79 C 1132.25 432.77, 1132.25 432.26, 1132.26 431.28 C 1132.28 430.29, 1132.30 429.80, 1132.35 428.88 C 1132.41 427.96, 1132.46 427.52, 1132.54 426.68 C 1132.62 425.84, 1132.71 425.43, 1132.75 424.69 C 1132.79 423.96, 1132.83 423.58, 1132.75 423.01 C 1132.67 422.44, 1132.57 422.21, 1132.36 421.85 C 1132.14 421.48, 1132.03 421.31, 1131.66 421.19 C 1131.28 421.07, 1130.85 421.10, 1130.49 421.24" style="stroke: white; fill: white;"/><path d="M 1133.24,453.30 C 1133.52 453.40, 1133.58 453.29, 1133.34 453.12 C 1133.11 452.94, 1132.33 452.54, 1132.06 452.44 C 1131.78 452.35, 1131.72 452.46, 1131.96 452.63 C 1132.20 452.80, 1132.97 453.21, 1133.24 453.30" style="stroke: white; fill: white;"/></svg>