<svg xmlns="http://www.w3.org/2000/svg" id="canvas" viewBox="435.685 410.891 632.321 182.699"><path d="M 480.53,414.40 C 478.97 415.29, 478.31 416.56, 477.46 419.62 C 476.61 422.67, 477.07 424.69, 476.29 429.67 C 475.51 434.66, 475.02 438.03, 473.55 444.55 C 472.08 451.07, 471.07 454.81, 468.95 462.27 C 466.83 469.72, 465.46 473.92, 462.93 481.82 C 460.40 489.72, 458.88 493.95, 456.31 501.77 C 453.74 509.60, 452.35 513.69, 450.08 520.92 C 447.82 528.16, 446.74 531.71, 444.98 537.95 C 443.23 544.20, 442.56 547.15, 441.33 552.15 C 440.10 557.15, 439.18 559.22, 438.84 562.95 C 438.50 566.69, 438.70 568.82, 439.62 570.84 C 440.54 572.85, 442.31 572.88, 443.43 573.04 C 444.56 573.20, 444.74 572.28, 445.23 571.63 C 445.72 570.99, 445.57 571.41, 445.90 569.81 C 446.23 568.22, 446.60 566.97, 446.88 563.66 C 447.15 560.34, 446.68 558.14, 447.27 553.25 C 447.87 548.36, 448.44 545.40, 449.87 539.20 C 451.29 532.99, 452.29 529.45, 454.40 522.23 C 456.51 515.02, 457.88 510.93, 460.43 503.12 C 462.98 495.32, 464.50 491.08, 467.15 483.20 C 469.80 475.32, 471.24 471.14, 473.68 463.72 C 476.13 456.30, 477.36 452.59, 479.37 446.11 C 481.39 439.63, 482.33 436.29, 483.75 431.32 C 485.17 426.35, 486.17 424.49, 486.47 421.26 C 486.77 418.03, 486.44 416.54, 485.25 415.17 C 484.06 413.80, 482.09 413.51, 480.53 414.40" style="stroke: white; fill: white;"/><path d="M 538.80,427.99 C 537.30 428.32, 536.54 428.55, 535.49 430.45 C 534.43 432.34, 534.40 433.63, 533.53 437.45 C 532.65 441.28, 532.52 444.02, 531.10 449.59 C 529.68 455.15, 528.60 458.62, 526.41 465.26 C 524.22 471.90, 522.80 475.69, 520.15 482.77 C 517.51 489.85, 515.90 493.70, 513.17 500.66 C 510.45 507.63, 508.98 511.21, 506.52 517.59 C 504.06 523.97, 502.93 527.13, 500.89 532.57 C 498.85 538.00, 497.96 540.51, 496.32 544.79 C 494.68 549.06, 493.65 550.89, 492.69 553.94 C 491.73 556.99, 491.53 558.17, 491.53 560.03 C 491.54 561.88, 492.24 562.37, 492.74 563.22 C 493.24 564.08, 493.52 563.98, 494.04 564.29 C 494.56 564.59, 494.72 564.71, 495.34 564.74 C 495.96 564.76, 496.25 564.95, 497.13 564.40 C 498.00 563.84, 498.89 563.61, 499.73 561.96 C 500.57 560.32, 500.71 559.20, 501.32 556.16 C 501.93 553.11, 501.81 551.10, 502.78 546.74 C 503.75 542.38, 504.49 539.85, 506.17 534.36 C 507.85 528.88, 508.90 525.72, 511.19 519.33 C 513.48 512.94, 514.91 509.36, 517.63 502.41 C 520.35 495.46, 521.98 491.61, 524.80 484.57 C 527.63 477.53, 529.12 473.76, 531.76 467.22 C 534.39 460.68, 535.74 457.27, 537.98 451.89 C 540.21 446.50, 541.54 444.08, 542.95 440.27 C 544.36 436.47, 545.01 435.15, 545.01 432.85 C 545.01 430.56, 544.21 429.78, 542.97 428.81 C 541.73 427.83, 540.29 427.66, 538.80 427.99" style="stroke: white; fill: white;"/><path d="M 460.16,514.08 C 461.06 515.37, 461.72 516.08, 463.86 516.34 C 466.00 516.59, 467.28 516.14, 470.85 515.35 C 474.41 514.56, 476.74 513.51, 481.70 512.39 C 486.66 511.27, 489.75 510.72, 495.67 509.76 C 501.58 508.79, 505.00 508.32, 511.25 507.54 C 517.51 506.76, 520.89 506.37, 526.94 505.85 C 532.98 505.33, 536.35 505.03, 541.48 504.93 C 546.62 504.83, 549.06 505.45, 552.60 505.36 C 556.14 505.27, 557.26 505.04, 559.18 504.48 C 561.11 503.92, 561.59 503.47, 562.21 502.56 C 562.82 501.65, 562.87 500.86, 562.26 499.92 C 561.66 498.99, 561.16 498.44, 559.18 497.88 C 557.21 497.32, 556.01 497.05, 552.39 497.14 C 548.76 497.24, 546.26 497.79, 541.06 498.36 C 535.85 498.93, 532.46 499.32, 526.36 499.98 C 520.27 500.65, 516.89 501.04, 510.59 501.69 C 504.29 502.34, 500.85 502.71, 494.85 503.23 C 488.85 503.75, 485.73 503.99, 480.57 504.28 C 475.41 504.58, 472.78 504.26, 469.06 504.69 C 465.34 505.12, 463.90 505.41, 461.96 506.45 C 460.03 507.48, 459.74 508.35, 459.38 509.88 C 459.02 511.40, 459.27 512.78, 460.16 514.08" style="stroke: white; fill: white;"/><path d="M 627.74,495.53 C 627.43 493.78, 626.55 492.75, 624.53 491.57 C 622.50 490.39, 620.86 489.44, 617.61 489.63 C 614.36 489.81, 612.19 490.76, 608.28 492.47 C 604.38 494.18, 602.37 495.47, 598.08 498.16 C 593.79 500.85, 591.30 502.46, 586.84 505.94 C 582.37 509.41, 579.84 511.51, 575.75 515.54 C 571.66 519.57, 569.46 521.84, 566.38 526.08 C 563.30 530.32, 561.80 532.49, 560.35 536.72 C 558.90 540.95, 558.30 543.38, 559.15 547.24 C 560.00 551.09, 561.46 553.38, 564.61 555.98 C 567.75 558.57, 570.24 559.34, 574.88 560.20 C 579.53 561.05, 582.33 560.87, 587.84 560.24 C 593.34 559.61, 596.52 558.88, 602.41 557.06 C 608.30 555.25, 611.56 553.97, 617.30 551.17 C 623.04 548.37, 626.09 546.52, 631.11 543.08 C 636.14 539.64, 638.58 537.72, 642.42 533.98 C 646.27 530.24, 647.93 528.27, 650.32 524.38 C 652.72 520.49, 653.72 518.37, 654.41 514.52 C 655.10 510.68, 654.84 508.39, 653.77 505.15 C 652.70 501.91, 651.15 500.16, 649.06 498.33 C 646.96 496.49, 645.27 496.13, 643.31 495.97 C 641.35 495.80, 640.20 496.46, 639.26 497.49 C 638.32 498.52, 638.48 499.91, 638.61 501.14 C 638.73 502.37, 639.28 502.64, 639.89 503.62 C 640.51 504.60, 640.75 505.00, 641.66 506.04 C 642.58 507.09, 643.67 507.36, 644.46 508.83 C 645.25 510.30, 645.73 510.99, 645.61 513.38 C 645.49 515.77, 645.41 517.56, 643.85 520.78 C 642.29 523.99, 641.05 525.98, 637.82 529.46 C 634.58 532.94, 632.32 534.90, 627.70 538.17 C 623.08 541.44, 620.13 543.25, 614.72 545.80 C 609.32 548.35, 606.16 549.48, 600.66 550.92 C 595.16 552.36, 592.06 552.76, 587.23 552.99 C 582.41 553.22, 579.96 552.86, 576.53 552.07 C 573.10 551.29, 571.91 550.41, 570.10 549.06 C 568.29 547.72, 567.95 547.33, 567.47 545.34 C 566.99 543.35, 566.78 542.17, 567.71 539.12 C 568.64 536.08, 569.56 533.87, 572.11 530.12 C 574.67 526.36, 576.69 524.05, 580.47 520.36 C 584.26 516.66, 586.74 514.64, 591.05 511.63 C 595.35 508.62, 597.94 507.19, 602.00 505.32 C 606.06 503.44, 608.11 502.78, 611.35 502.25 C 614.59 501.72, 615.97 502.72, 618.20 502.65 C 620.42 502.59, 620.89 502.38, 622.46 501.91 C 624.03 501.45, 625.00 501.61, 626.05 500.33 C 627.11 499.06, 628.04 497.28, 627.74 495.53" style="stroke: white; fill: white;"/><path d="M 696.23,494.48 C 694.64 494.47, 693.70 494.65, 692.21 496.14 C 690.72 497.64, 689.94 498.87, 688.77 501.98 C 687.60 505.09, 687.47 507.52, 686.36 511.70 C 685.25 515.89, 684.50 518.46, 683.23 522.89 C 681.96 527.33, 681.10 529.69, 680.02 533.87 C 678.94 538.05, 678.20 540.08, 677.84 543.80 C 677.48 547.53, 677.28 549.45, 678.20 552.50 C 679.11 555.55, 680.15 557.08, 682.42 559.06 C 684.69 561.04, 686.44 561.99, 689.55 562.38 C 692.65 562.78, 694.70 562.64, 697.96 561.04 C 701.23 559.45, 702.50 557.57, 705.87 554.39 C 709.24 551.21, 710.98 549.23, 714.82 545.15 C 718.66 541.06, 720.91 538.57, 725.08 533.96 C 729.25 529.36, 731.67 526.64, 735.68 522.11 C 739.69 517.58, 741.74 515.12, 745.15 511.31 C 748.55 507.50, 750.44 505.91, 752.72 503.06 C 754.99 500.21, 755.67 499.05, 756.50 497.08 C 757.33 495.11, 757.22 494.34, 756.85 493.22 C 756.49 492.11, 755.84 491.58, 754.66 491.51 C 753.48 491.43, 752.65 491.53, 750.97 492.82 C 749.28 494.12, 748.45 495.14, 746.25 497.98 C 744.05 500.83, 743.02 503.04, 739.98 507.05 C 736.94 511.06, 734.95 513.53, 731.04 518.05 C 727.14 522.57, 724.70 525.24, 720.45 529.63 C 716.20 534.01, 713.82 536.41, 709.79 539.96 C 705.76 543.52, 703.67 545.20, 700.29 547.39 C 696.92 549.59, 695.08 549.84, 692.92 550.94 C 690.77 552.04, 690.47 552.51, 689.53 552.91 C 688.59 553.32, 688.59 553.48, 688.24 552.96 C 687.88 552.43, 687.93 551.98, 687.75 550.29 C 687.57 548.60, 687.21 547.39, 687.34 544.51 C 687.47 541.63, 687.56 539.68, 688.40 535.89 C 689.24 532.10, 690.06 529.72, 691.55 525.57 C 693.04 521.41, 694.06 518.94, 695.84 515.12 C 697.62 511.30, 699.25 509.48, 700.44 506.46 C 701.63 503.44, 701.83 502.07, 701.78 500.02 C 701.72 497.98, 701.28 497.33, 700.17 496.23 C 699.06 495.12, 697.82 494.50, 696.23 494.48" style="stroke: white; fill: white;"/><path d="M 776.32,533.86 C 777.61 534.95, 778.61 535.25, 780.80 535.07 C 783.00 534.88, 784.36 534.44, 787.28 532.96 C 790.19 531.47, 791.90 529.90, 795.38 527.63 C 798.86 525.36, 800.96 524.02, 804.66 521.60 C 808.37 519.19, 810.44 517.91, 813.91 515.55 C 817.38 513.19, 819.31 512.23, 822.01 509.82 C 824.71 507.41, 826.14 506.26, 827.42 503.51 C 828.70 500.77, 829.01 498.94, 828.41 496.10 C 827.81 493.27, 826.91 491.20, 824.43 489.33 C 821.94 487.45, 819.79 486.63, 815.97 486.73 C 812.15 486.83, 809.93 488.04, 805.31 489.85 C 800.70 491.65, 798.00 492.92, 792.89 495.76 C 787.78 498.60, 784.77 500.45, 779.76 504.05 C 774.75 507.65, 772.04 509.79, 767.84 513.77 C 763.63 517.76, 761.56 519.88, 758.73 523.99 C 755.91 528.11, 754.59 530.21, 753.71 534.35 C 752.83 538.49, 752.83 541.04, 754.33 544.69 C 755.84 548.35, 757.63 550.18, 761.24 552.64 C 764.85 555.09, 767.35 555.77, 772.37 556.97 C 777.39 558.17, 780.33 558.40, 786.33 558.62 C 792.32 558.83, 795.75 558.63, 802.35 558.04 C 808.94 557.45, 812.67 556.85, 819.29 555.65 C 825.91 554.45, 829.37 553.64, 835.45 552.04 C 841.53 550.45, 844.53 549.49, 849.68 547.67 C 854.83 545.86, 857.17 544.92, 861.19 542.98 C 865.21 541.04, 867.69 540.37, 869.76 537.98 C 871.84 535.58, 871.80 533.01, 871.58 531.01 C 871.36 529.00, 869.64 528.25, 868.67 527.96 C 867.69 527.67, 867.12 529.16, 866.71 529.55 C 866.29 529.95, 867.30 529.65, 866.59 529.94 C 865.88 530.23, 864.99 529.70, 863.16 531.01 C 861.33 532.32, 860.60 534.30, 857.45 536.48 C 854.31 538.67, 852.13 539.89, 847.43 541.92 C 842.74 543.95, 839.79 544.96, 833.96 546.62 C 828.14 548.28, 824.73 549.10, 818.32 550.22 C 811.91 551.34, 808.23 551.86, 801.91 552.23 C 795.60 552.61, 792.26 552.60, 786.75 552.07 C 781.23 551.55, 778.51 550.91, 774.35 549.63 C 770.20 548.35, 768.43 547.32, 765.99 545.66 C 763.55 544.00, 763.07 543.27, 762.15 541.32 C 761.23 539.36, 760.92 538.58, 761.39 535.88 C 761.87 533.18, 762.37 531.30, 764.54 527.81 C 766.72 524.31, 768.50 522.09, 772.28 518.39 C 776.06 514.70, 778.69 512.58, 783.46 509.33 C 788.23 506.08, 791.24 504.37, 796.12 502.15 C 801.00 499.94, 803.82 499.10, 807.88 498.26 C 811.94 497.42, 813.90 498.10, 816.41 497.96 C 818.91 497.82, 819.45 497.75, 820.41 497.56 C 821.36 497.37, 821.42 496.86, 821.19 497.00 C 820.96 497.15, 820.46 497.19, 819.27 498.29 C 818.09 499.38, 817.39 500.48, 815.28 502.48 C 813.18 504.48, 811.80 505.99, 808.74 508.27 C 805.67 510.56, 803.63 511.85, 799.98 513.91 C 796.33 515.97, 794.15 517.01, 790.50 518.58 C 786.85 520.16, 784.58 520.41, 781.72 521.79 C 778.87 523.17, 777.70 523.92, 776.22 525.49 C 774.75 527.06, 774.34 527.98, 774.36 529.65 C 774.38 531.33, 775.03 532.78, 776.32 533.86" style="stroke: white; fill: white;"/><path d="M 883.83,516.93 C 882.26 516.98, 881.88 517.36, 880.42 518.42 C 878.96 519.48, 877.83 520.00, 876.55 522.24 C 875.27 524.49, 875.20 526.56, 874.00 529.65 C 872.80 532.73, 872.02 534.70, 870.56 537.65 C 869.10 540.60, 867.55 541.92, 866.69 544.39 C 865.84 546.85, 865.72 548.22, 866.29 549.98 C 866.86 551.74, 867.86 552.63, 869.52 553.18 C 871.18 553.72, 872.89 553.89, 874.59 552.71 C 876.28 551.53, 876.63 550.13, 877.99 547.29 C 879.34 544.45, 879.44 542.09, 881.37 538.50 C 883.30 534.91, 884.65 532.83, 887.66 529.32 C 890.66 525.81, 892.62 523.97, 896.42 520.94 C 900.21 517.92, 902.41 516.49, 906.65 514.21 C 910.88 511.93, 913.25 510.96, 917.59 509.53 C 921.94 508.10, 924.36 507.61, 928.36 507.05 C 932.36 506.49, 934.27 506.46, 937.59 506.73 C 940.92 507.00, 942.40 507.94, 944.98 508.39 C 947.57 508.84, 948.58 509.00, 950.51 508.97 C 952.43 508.95, 953.47 509.08, 954.61 508.25 C 955.74 507.43, 956.44 506.33, 956.20 504.86 C 955.95 503.39, 955.25 502.28, 953.38 500.90 C 951.50 499.52, 950.00 498.56, 946.83 497.99 C 943.66 497.41, 941.51 497.74, 937.55 498.04 C 933.58 498.35, 931.46 498.55, 927.00 499.51 C 922.55 500.46, 919.98 501.10, 915.26 502.82 C 910.53 504.55, 908.00 505.64, 903.37 508.14 C 898.74 510.63, 896.38 512.15, 892.10 515.31 C 887.83 518.47, 885.71 520.39, 882.00 523.93 C 878.29 527.46, 876.61 529.50, 873.55 532.97 C 870.49 536.43, 868.54 538.14, 866.71 541.24 C 864.88 544.35, 864.18 546.07, 864.38 548.50 C 864.59 550.93, 866.00 552.28, 867.73 553.41 C 869.47 554.54, 871.02 554.77, 873.05 554.15 C 875.08 553.54, 876.26 552.55, 877.90 550.32 C 879.53 548.09, 879.68 546.03, 881.22 543.01 C 882.76 539.99, 883.88 538.18, 885.59 535.23 C 887.30 532.27, 888.85 530.86, 889.77 528.23 C 890.69 525.61, 890.49 524.12, 890.20 522.11 C 889.90 520.10, 889.56 519.20, 888.29 518.17 C 887.01 517.13, 885.41 516.88, 883.83 516.93" style="stroke: white; fill: white;"/><path d="M 1059.86,437.15 C 1058.24 437.13, 1057.30 437.35, 1055.76 439.01 C 1054.22 440.66, 1053.78 442.01, 1052.15 445.43 C 1050.52 448.85, 1049.76 451.41, 1047.62 456.09 C 1045.47 460.77, 1044.09 463.62, 1041.43 468.84 C 1038.77 474.05, 1037.13 476.89, 1034.33 482.16 C 1031.53 487.44, 1030.01 490.14, 1027.42 495.22 C 1024.83 500.30, 1023.54 502.90, 1021.37 507.57 C 1019.19 512.24, 1018.17 514.70, 1016.54 518.57 C 1014.90 522.44, 1013.75 524.06, 1013.17 526.90 C 1012.60 529.74, 1013.21 530.96, 1013.66 532.78 C 1014.10 534.60, 1014.42 535.31, 1015.38 535.99 C 1016.34 536.67, 1017.43 536.62, 1018.45 536.16 C 1019.48 535.71, 1019.61 535.11, 1020.49 533.71 C 1021.37 532.32, 1022.15 531.73, 1022.85 529.20 C 1023.55 526.67, 1023.07 524.87, 1024.00 521.07 C 1024.92 517.26, 1025.71 514.80, 1027.49 510.17 C 1029.27 505.55, 1030.45 502.97, 1032.89 497.95 C 1035.33 492.93, 1036.83 490.26, 1039.71 485.09 C 1042.59 479.92, 1044.30 477.11, 1047.31 472.09 C 1050.32 467.08, 1051.96 464.35, 1054.77 460.02 C 1057.58 455.69, 1059.35 453.70, 1061.35 450.44 C 1063.36 447.17, 1064.30 445.98, 1064.80 443.71 C 1065.30 441.45, 1064.85 440.42, 1063.86 439.10 C 1062.87 437.79, 1061.48 437.17, 1059.86 437.15" style="stroke: white; fill: white;"/><path d="M 1019.97,584.57 C 1020.77 582.88, 1020.72 581.48, 1020.04 581.03 C 1019.36 580.57, 1017.96 581.16, 1016.57 582.29 C 1015.19 583.43, 1013.91 585.10, 1013.12 586.70 C 1012.34 588.31, 1012.08 589.77, 1012.66 590.32 C 1013.24 590.86, 1014.58 590.60, 1016.04 589.45 C 1017.51 588.30, 1019.17 586.25, 1019.97 584.57" style="stroke: white; fill: white;"/></svg>